<?xml version="1.0" encoding="UTF-8"?>
<svg width="30px" height="30px" viewBox="0 0 30 30" version="1.1" xmlns="http://www.w3.org/2000/svg" xmlns:xlink="http://www.w3.org/1999/xlink">
    <!-- Generator: Sketch 57.1 (83088) - https://sketch.com -->
    <title>Alert</title>
    <desc>Created with Sketch.</desc>
    <g id="Alert" stroke="none" stroke-width="1" fill="none" fill-rule="evenodd">
        <path d="M25.719203,23.62475 L16.2863902,5.783675 C16.0299465,5.30105 15.535691,5 14.9969833,5 C14.4582756,5 13.962553,5.30105 13.7061461,5.783675 L4.17823049,23.79395 C3.6510026,24.787325 4.356406,26 5.46837087,26 L24.5185905,26 C24.5243121,26 24.5285666,26 24.5329311,26 C25.3438168,26 26,25.3313 26,24.5051 C26,24.176975 25.895398,23.871575 25.719203,23.62475 Z M14.9969833,23.96975 C14.0793317,23.96975 13.3365181,23.21315 13.3365181,22.277825 C13.3365181,21.34325 14.0793684,20.5852625 14.9969833,20.5852625 C15.9145982,20.5852625 16.6574486,21.3432875 16.6574486,22.277825 C16.6574486,23.21315 15.9146349,23.96975 14.9969833,23.96975 Z M15.9454067,17.758025 C15.7265567,18.937025 14.2724713,18.95225 14.0470929,17.758025 C13.6903384,15.791525 13.5155738,13.6726625 13.335051,11.916275 C13.2949267,11.5178 13.615848,11.071025 14.0341827,10.98245 C14.7935009,10.83005 15.2290369,10.83005 15.9926463,10.98245 C16.4095506,11.071025 16.6989666,11.5178 16.6602727,11.916275 C16.4798232,13.672625 16.3021612,15.791525 15.9454067,17.758025 Z" id="Shape" fill="#FF0000" fill-rule="nonzero"></path>
    </g>
</svg>