<?xml version="1.0" encoding="UTF-8"?>
<svg width="72px" height="30px" viewBox="0 0 72 30" version="1.1" xmlns="http://www.w3.org/2000/svg" xmlns:xlink="http://www.w3.org/1999/xlink">
    <!-- Generator: Sketch 57.1 (83088) - https://sketch.com -->
    <title>Face book</title>
    <desc>Created with Sketch.</desc>
    <g id="Face-book" stroke="none" stroke-width="1" fill="none" fill-rule="evenodd" stroke-linecap="round" stroke-linejoin="round">
        <g id="facebook" transform="translate(8.000000, 9.000000)" fill="#3C5A99" fill-rule="nonzero">
            <g id="A-link" transform="translate(0.266667, 0.266667)">
                <g id="A">
                    <path d="M4.24533333,1.6384 C3.60426667,1.6384 3.4224,1.92266667 3.4224,2.5488 L3.4224,3.58346667 L5.12693333,3.58346667 L4.95946667,5.25813333 L3.4224,5.25813333 L3.4224,10.3354667 L1.38293333,10.3354667 L1.38293333,5.25813333 L0,5.25813333 L0,3.58346667 L1.376,3.58346667 L1.376,2.57813333 C1.376,0.888533333 2.05333333,0 3.95413333,0 C4.36213333,0 4.85013333,0.0293333333 5.14133333,0.0730666667 L5.14133333,1.6464 L4.24533333,1.6384 Z M5.25866667,7.16746667 C5.25866667,9.05386667 6.15466667,10.4666667 8.0192,10.4666667 C9.03893333,10.4666667 9.68,9.9568 9.96373333,9.30933333 L9.96373333,10.3290667 L11.9232,10.3290667 L11.9232,3.58186667 L9.96373333,3.58186667 L9.96373333,4.61653333 C9.66506667,3.96853333 9.0464,3.4368 8.0192,3.4368 C6.15253333,3.4368 5.25866667,4.85706667 5.25866667,6.736 L5.25866667,7.16746667 Z M7.3056,6.70666667 C7.3056,5.70133333 7.6768,5.032 8.624,5.032 C9.46133333,5.032 9.88426667,5.64373333 9.88426667,6.60533333 L9.88426667,7.28266667 C9.88426667,8.24426667 9.46186667,8.856 8.624,8.856 C7.67733333,8.856 7.3056,8.19306667 7.3056,7.18133333 L7.3056,6.70666667 Z M16.1770667,3.43626667 C13.7866667,3.43786667 12.6933333,4.7264 12.6933333,6.7952 L12.6933333,7.10826667 C12.6933333,9.17653333 13.7856,10.4661333 16.1824,10.4661333 C16.9824,10.4661333 17.7264,10.2986667 18.1418667,10.0144 L17.6901333,8.5648 C17.2640196,8.76628284 16.7993231,8.87308661 16.328,8.87786667 C15.2208,8.87786667 14.7402667,8.2368 14.7402667,7.15146667 L14.7402667,6.7584 C14.7402667,5.66613333 15.2202667,5.032 16.328,5.032 C16.8613333,5.032 17.3770667,5.18506667 17.6901333,5.34506667 L18.1418667,3.89546667 C17.7269333,3.60426667 16.9765333,3.4368 16.1824,3.4368 L16.1770667,3.43626667 Z M18.4037333,7.2096 C18.4037333,9.19093333 19.3653333,10.48 21.9434667,10.48 C22.9194667,10.48 24.0266667,10.2688 24.5653333,9.984 L24.1941333,8.57813333 C23.5968,8.83306667 22.7882667,8.98613333 22.0234667,8.98613333 C20.8874667,8.98613333 20.4794667,8.57813333 20.4357333,7.6528 L24.7328,7.6528 L24.7328,6.57546667 C24.7328,4.7088 23.8154667,3.4288 21.7173333,3.4288 C19.488,3.4288 18.4032,4.68906667 18.4032,6.60426667 L18.4032,7.21386667 L18.4037333,7.2096 Z M20.4426667,6.3328 C20.4426667,5.4224 20.8,4.84693333 21.7226667,4.84693333 C22.6186667,4.84693333 22.9098667,5.42986667 22.9098667,6.16533333 L22.9098667,6.3328 L20.4426667,6.3328 L20.4426667,6.3328 Z M32.3077333,6.7408 C32.3077333,4.8544 31.3973333,3.4416 29.5328,3.4416 C28.5861333,3.4416 27.9306667,3.9216 27.632,4.51893333 L27.632,0.0106666667 L25.5925333,0.192 L25.5925333,10.3253333 L27.5232,10.3253333 L27.5232,9.3056 C27.8074667,9.9536 28.5136,10.4709333 29.5338667,10.4709333 C31.4005333,10.4709333 32.3088,9.05066667 32.3088,7.17173333 L32.3077333,6.7408 Z M30.2693333,7.20106667 C30.2693333,8.14773333 29.8981333,8.86186667 28.9221333,8.86186667 C28.0848,8.86186667 27.6330667,8.26453333 27.6330667,7.30293333 L27.6330667,6.59626667 C27.6330667,5.63466667 28.0848,5.03733333 28.9221333,5.03733333 C29.8981333,5.03733333 30.2693333,5.744 30.2693333,6.69813333 L30.2693333,7.20106667 Z M32.9936,7.12106667 C32.9936,9.0656 34.1008,10.464 36.3514667,10.464 C38.6021333,10.464 39.7093333,9.05813333 39.7093333,7.12106667 L39.7093333,6.77866667 C39.7093333,4.83413333 38.6021333,3.43573333 36.3514667,3.43573333 C34.1008,3.43573333 32.9936,4.8416 32.9936,6.77866667 L32.9936,7.12106667 L32.9936,7.12106667 Z M37.6698667,7.25973333 C37.6698667,8.15573333 37.2986667,8.86186667 36.3514667,8.86186667 C35.4042667,8.86186667 35.0330667,8.1552 35.0330667,7.25973333 L35.0330667,6.6336 C35.0330667,5.7376 35.4042667,5.03146667 36.3514667,5.03146667 C37.2986667,5.03146667 37.6698667,5.73813333 37.6698667,6.6336 L37.6698667,7.25973333 Z M40.3866667,7.12106667 C40.3866667,9.0656 41.4938667,10.464 43.7445333,10.464 C45.9952,10.464 47.1024,9.05813333 47.1024,7.12106667 L47.1024,6.77866667 C47.1024,4.83413333 45.9952,3.43573333 43.7445333,3.43573333 C41.4938667,3.43573333 40.3866667,4.8416 40.3866667,6.77866667 L40.3866667,7.12106667 L40.3866667,7.12106667 Z M45.0693333,7.25973333 C45.0693333,8.15573333 44.6981333,8.86186667 43.7509333,8.86186667 C42.8037333,8.86186667 42.432,8.16853333 42.432,7.26186667 L42.432,6.63573333 C42.432,5.73973333 42.8032,5.0336 43.7504,5.0336 C44.6976,5.0336 45.0688,5.74026667 45.0688,6.63573333 L45.0693333,7.25973333 Z M49.9130667,0.00533333333 L47.8736,0.186666667 L47.8736,10.3072 L49.9130667,10.3072 L49.9130667,7.008 L52.0106667,10.3072 L54.1813333,10.3072 L51.9818667,6.89386667 L54.0938667,3.56586667 L51.9232,3.56586667 L49.9125333,6.78506667 L49.9130667,0.00533333333 Z" id="Shape"></path>
                </g>
            </g>
            <g id="A">
                <path d="M4.24533333,1.6384 C3.60426667,1.6384 3.4224,1.92266667 3.4224,2.5488 L3.4224,3.58346667 L5.12693333,3.58346667 L4.95946667,5.25813333 L3.4224,5.25813333 L3.4224,10.3354667 L1.38293333,10.3354667 L1.38293333,5.25813333 L0,5.25813333 L0,3.58346667 L1.376,3.58346667 L1.376,2.57813333 C1.376,0.888533333 2.05333333,0 3.95413333,0 C4.36213333,0 4.85013333,0.0293333333 5.14133333,0.0730666667 L5.14133333,1.6464 L4.24533333,1.6384 Z M5.25866667,7.16746667 C5.25866667,9.05386667 6.15466667,10.4666667 8.0192,10.4666667 C9.03893333,10.4666667 9.68,9.9568 9.96373333,9.30933333 L9.96373333,10.3290667 L11.9232,10.3290667 L11.9232,3.58186667 L9.96373333,3.58186667 L9.96373333,4.61653333 C9.66506667,3.96853333 9.0464,3.4368 8.0192,3.4368 C6.15253333,3.4368 5.25866667,4.85706667 5.25866667,6.736 L5.25866667,7.16746667 Z M7.3056,6.70666667 C7.3056,5.70133333 7.6768,5.032 8.624,5.032 C9.46133333,5.032 9.88426667,5.64373333 9.88426667,6.60533333 L9.88426667,7.28266667 C9.88426667,8.24426667 9.46186667,8.856 8.624,8.856 C7.67733333,8.856 7.3056,8.19306667 7.3056,7.18133333 L7.3056,6.70666667 Z M16.1770667,3.43626667 C13.7866667,3.43786667 12.6933333,4.7264 12.6933333,6.7952 L12.6933333,7.10826667 C12.6933333,9.17653333 13.7856,10.4661333 16.1824,10.4661333 C16.9824,10.4661333 17.7264,10.2986667 18.1418667,10.0144 L17.6901333,8.5648 C17.2640196,8.76628284 16.7993231,8.87308661 16.328,8.87786667 C15.2208,8.87786667 14.7402667,8.2368 14.7402667,7.15146667 L14.7402667,6.7584 C14.7402667,5.66613333 15.2202667,5.032 16.328,5.032 C16.8613333,5.032 17.3770667,5.18506667 17.6901333,5.34506667 L18.1418667,3.89546667 C17.7269333,3.60426667 16.9765333,3.4368 16.1824,3.4368 L16.1770667,3.43626667 Z M18.4037333,7.2096 C18.4037333,9.19093333 19.3653333,10.48 21.9434667,10.48 C22.9194667,10.48 24.0266667,10.2688 24.5653333,9.984 L24.1941333,8.57813333 C23.5968,8.83306667 22.7882667,8.98613333 22.0234667,8.98613333 C20.8874667,8.98613333 20.4794667,8.57813333 20.4357333,7.6528 L24.7328,7.6528 L24.7328,6.57546667 C24.7328,4.7088 23.8154667,3.4288 21.7173333,3.4288 C19.488,3.4288 18.4032,4.68906667 18.4032,6.60426667 L18.4032,7.21386667 L18.4037333,7.2096 Z M20.4426667,6.3328 C20.4426667,5.4224 20.8,4.84693333 21.7226667,4.84693333 C22.6186667,4.84693333 22.9098667,5.42986667 22.9098667,6.16533333 L22.9098667,6.3328 L20.4426667,6.3328 L20.4426667,6.3328 Z M32.3077333,6.7408 C32.3077333,4.8544 31.3973333,3.4416 29.5328,3.4416 C28.5861333,3.4416 27.9306667,3.9216 27.632,4.51893333 L27.632,0.0106666667 L25.5925333,0.192 L25.5925333,10.3253333 L27.5232,10.3253333 L27.5232,9.3056 C27.8074667,9.9536 28.5136,10.4709333 29.5338667,10.4709333 C31.4005333,10.4709333 32.3088,9.05066667 32.3088,7.17173333 L32.3077333,6.7408 Z M30.2693333,7.20106667 C30.2693333,8.14773333 29.8981333,8.86186667 28.9221333,8.86186667 C28.0848,8.86186667 27.6330667,8.26453333 27.6330667,7.30293333 L27.6330667,6.59626667 C27.6330667,5.63466667 28.0848,5.03733333 28.9221333,5.03733333 C29.8981333,5.03733333 30.2693333,5.744 30.2693333,6.69813333 L30.2693333,7.20106667 Z M32.9936,7.12106667 C32.9936,9.0656 34.1008,10.464 36.3514667,10.464 C38.6021333,10.464 39.7093333,9.05813333 39.7093333,7.12106667 L39.7093333,6.77866667 C39.7093333,4.83413333 38.6021333,3.43573333 36.3514667,3.43573333 C34.1008,3.43573333 32.9936,4.8416 32.9936,6.77866667 L32.9936,7.12106667 L32.9936,7.12106667 Z M37.6698667,7.25973333 C37.6698667,8.15573333 37.2986667,8.86186667 36.3514667,8.86186667 C35.4042667,8.86186667 35.0330667,8.1552 35.0330667,7.25973333 L35.0330667,6.6336 C35.0330667,5.7376 35.4042667,5.03146667 36.3514667,5.03146667 C37.2986667,5.03146667 37.6698667,5.73813333 37.6698667,6.6336 L37.6698667,7.25973333 Z M40.3866667,7.12106667 C40.3866667,9.0656 41.4938667,10.464 43.7445333,10.464 C45.9952,10.464 47.1024,9.05813333 47.1024,7.12106667 L47.1024,6.77866667 C47.1024,4.83413333 45.9952,3.43573333 43.7445333,3.43573333 C41.4938667,3.43573333 40.3866667,4.8416 40.3866667,6.77866667 L40.3866667,7.12106667 L40.3866667,7.12106667 Z M45.0693333,7.25973333 C45.0693333,8.15573333 44.6981333,8.86186667 43.7509333,8.86186667 C42.8037333,8.86186667 42.432,8.16853333 42.432,7.26186667 L42.432,6.63573333 C42.432,5.73973333 42.8032,5.0336 43.7504,5.0336 C44.6976,5.0336 45.0688,5.74026667 45.0688,6.63573333 L45.0693333,7.25973333 Z M49.9130667,0.00533333333 L47.8736,0.186666667 L47.8736,10.3072 L49.9130667,10.3072 L49.9130667,7.008 L52.0106667,10.3072 L54.1813333,10.3072 L51.9818667,6.89386667 L54.0938667,3.56586667 L51.9232,3.56586667 L49.9125333,6.78506667 L49.9130667,0.00533333333 Z" id="Shape"></path>
            </g>
        </g>
    </g>
</svg>