<?xml version="1.0" encoding="UTF-8"?>
<svg width="72px" height="30px" viewBox="0 0 72 30" version="1.1" xmlns="http://www.w3.org/2000/svg" xmlns:xlink="http://www.w3.org/1999/xlink">
    <!-- Generator: Sketch 57.1 (83088) - https://sketch.com -->
    <title>Instagram</title>
    <desc>Created with Sketch.</desc>
    <defs>
        <radialGradient cx="-17%" cy="162%" fx="-17%" fy="162%" r="377.240574%" gradientTransform="translate(-0.170000,1.620000),scale(0.999362,1.000000),translate(0.170000,-1.620000)" id="radialGradient-1">
            <stop stop-color="#FED576" offset="0%"></stop>
            <stop stop-color="#F47133" offset="26.3%"></stop>
            <stop stop-color="#BC3081" offset="60.9%"></stop>
            <stop stop-color="#4C63D2" offset="100%"></stop>
        </radialGradient>
        <radialGradient cx="-449%" cy="733%" fx="-449%" fy="733%" r="1576%" gradientTransform="translate(-4.490000,7.330000),scale(1.000000,0.993841),translate(4.490000,-7.330000)" id="radialGradient-2">
            <stop stop-color="#FED576" offset="0%"></stop>
            <stop stop-color="#F47133" offset="26.3%"></stop>
            <stop stop-color="#BC3081" offset="60.9%"></stop>
            <stop stop-color="#4C63D2" offset="100%"></stop>
        </radialGradient>
        <radialGradient cx="16%" cy="107%" fx="16%" fy="107%" r="193.346043%" gradientTransform="translate(0.160000,1.070000),scale(0.998210,1.000000),translate(-0.160000,-1.070000)" id="radialGradient-3">
            <stop stop-color="#FED576" offset="0%"></stop>
            <stop stop-color="#F47133" offset="26.3%"></stop>
            <stop stop-color="#BC3081" offset="60.9%"></stop>
            <stop stop-color="#4C63D2" offset="100%"></stop>
        </radialGradient>
    </defs>
    <g id="Instagram" stroke="none" stroke-width="1" fill="none" fill-rule="evenodd" stroke-linecap="round" stroke-linejoin="round">
        <g id="instagram" transform="translate(8.000000, 6.000000)">
            <g id="D-link" transform="translate(0.240936, 0.240936)">
                <g id="D">
                    <g id="Group">
                        <path d="M19.3707462,6.34961871 C20.0453661,5.68752749 20.4636304,5.66724654 20.4636304,5.66724654 C20.6188214,5.66592629 20.7725402,5.69745836 20.914662,5.75980819 C21.2341427,5.8706386 21.2519719,6.04507602 21.2519719,6.04507602 L21.2519719,10.8975205 C21.2934129,12.2544702 20.9551392,12.7753731 20.551331,13.1382222 C20.4289357,13.2495345 20.2766643,13.3227789 20.1133099,13.3492819 C20.0877708,13.3555462 20.0603041,13.3502456 20.0391018,13.333862 C20.0178994,13.3174784 20.0053708,13.2929029 20.0048889,13.2664 C20.0115915,13.1726179 20.0317138,13.0802823 20.0646409,12.9922152 C20.2684725,12.4684211 20.251607,11.5682854 20.251607,11.5682854 L20.2708819,6.3448 C20.2708819,6.3448 20.2867836,6.24842573 20.2053474,6.28793918 C19.4092959,6.97219649 19.3090667,7.93883041 19.2835275,8.40720936 C19.270517,9.10929591 19.5687953,9.46732632 19.5687953,9.46732632 C19.615055,9.51069474 19.6401123,9.5718924 19.6372211,9.63549942 C19.6405942,9.66923041 19.6280655,9.7029614 19.6044538,9.72705497 C19.5808421,9.75114854 19.5471111,9.76319532 19.5128982,9.75982222 C19.2131743,9.73090994 18.7351579,9.3936 18.5655392,8.98882807 C18.476393,8.79126082 18.427724,8.57779181 18.4229053,8.36094971 C18.4982857,7.60084349 18.8345731,6.89029808 19.3746012,6.35010058 L19.3707462,6.34961871 Z M54.132945,10.981848 C54.132945,12.5402199 53.1884772,12.5156444 53.1884772,12.5156444 C52.2893053,12.5469661 52.0599345,11.5981614 52.0040374,10.633455 C51.9558503,9.90727485 52.0040374,9.09965848 52.0040374,9.09965848 C52.0040374,9.09965848 52.0040374,9.06255439 51.9727158,9.09965848 C51.6715462,9.6441731 51.4677146,10.4729918 51.3674854,11.112917 C51.3236351,11.3962573 51.2966503,11.6824889 51.2874947,11.9692023 C51.2971322,12.0246175 51.2730386,12.0805146 51.2262971,12.1118363 C50.7381614,12.3359064 50.4244632,12.0178713 50.3131509,11.6622503 C50.170517,11.3249404 50.0789614,9.29915322 50.0789614,9.19362339 C50.0789614,9.08809357 49.9946339,9.16085614 49.9946339,9.16085614 C49.3180865,10.2836164 49.3123041,11.948 49.3123041,12.2819368 C49.3123041,12.6158737 48.7412865,12.5132351 48.7412865,12.5132351 C48.2531509,12.476131 48.2719439,12.2385684 48.2719439,12.2385684 L48.2492959,11.8362058 C48.0796772,12.1494222 47.7654971,12.5493754 47.2855532,12.5223906 C46.552145,12.4751673 46.4109567,11.7162199 46.3989099,11.5875602 C46.3989099,11.5875602 46.0336515,12.5320281 45.0303953,12.5223906 C44.3480655,12.5108257 44.0743626,11.8092211 44.0743626,11.8092211 C44.0743626,11.8092211 43.7996959,12.5464842 43.1298947,12.5223906 C42.4600936,12.4982971 41.9059415,11.7224842 41.9483462,10.7173006 C41.9575018,10.2084444 42.0254456,9.70199766 42.151214,9.20904327 C42.2769825,8.71608889 42.2056655,9.11266901 42.1141099,9.10206784 C42.0225544,9.09146667 41.443345,9.11170526 41.443345,9.11170526 C41.443345,9.11170526 41.1156725,10.4257684 39.7307743,12.0597942 L39.7404117,13.139186 C39.7404117,14.2137591 39.6064515,15.6545544 38.1502363,15.772131 C36.8915883,15.6863579 36.9629053,14.712014 36.9629053,14.712014 C36.9330292,14.4267462 37.1074667,13.9015064 37.8640047,13.1965287 L38.9144842,12.2202573 L38.8846082,11.7692257 C38.4037006,12.5643135 37.6688468,12.5199813 37.6688468,12.5199813 C37.6688468,12.5199813 37.0978292,12.6356304 36.623186,11.7909099 C36.480552,12.0761778 36.1634807,12.5744327 35.641614,12.5170901 C34.9082058,12.4351719 34.7626807,11.7051368 34.7511158,11.5750316 C34.7511158,11.5750316 34.3848936,12.5281731 33.3753731,12.5170901 C32.6911158,12.5055251 32.4150035,11.7966924 32.4150035,11.7966924 C32.3388678,11.6400842 32.2810433,11.4752842 32.2424936,11.3056655 L32.2126175,11.3943298 C32.0569731,11.7923556 31.6729216,12.4843228 31.0826292,12.4929965 C29.9984187,12.4929965 29.9526409,10.8122292 29.9526409,10.8122292 C29.6360515,11.5639485 29.023593,12.5132351 27.8820398,12.5074526 C26.7404865,12.5016702 26.5978526,12.0891883 26.5978526,12.0294363 C26.5899402,11.9138263 26.6302336,11.8000978 26.7091649,11.7152561 C26.8402339,11.5253988 26.9501006,11.4468538 27.0464749,11.4468538 C27.1418854,11.4733567 27.2291041,11.5225076 27.3018667,11.5894877 C27.4460638,11.7276077 27.6326612,11.8130112 27.8314433,11.831869 C28.1909193,11.8188585 28.2651275,11.5306994 28.2950035,11.2367579 C28.3248795,10.9428164 28.1118924,10.6286363 27.8242152,10.3664982 L27.3163228,9.90293801 L26.3631813,11.4728749 C25.8080655,12.3763836 25.2572865,12.5161263 25.0447813,12.4876959 C24.7556585,12.4477006 24.4737637,12.1479766 24.4568982,11.2704889 L24.5224327,8.81294503 C24.5224327,8.7344 24.4511158,8.77294971 24.4511158,8.77294971 C23.3538947,9.93715088 23.0247766,12.3320515 23.0247766,12.378793 C22.985745,12.4481825 22.9081637,12.487214 22.8291368,12.4770947 C22.7308351,12.4770947 22.8619041,12.4770947 22.4696608,12.4578199 C22.0774175,12.438545 22.1044023,11.7027275 22.1044023,11.7027275 L22.1299415,8.13543392 C22.1299415,8.01689357 22.2470363,7.9658152 22.6195228,8.06411696 C22.9920094,8.16241871 22.9789988,8.27806784 22.9789988,8.27806784 L22.9659883,10.3501146 C23.9263579,7.51767485 24.6510924,7.96147836 25.0895953,8.17832047 C25.5280982,8.39516257 25.4620819,8.70645146 25.4620819,8.70645146 L25.3965474,10.8122292 C25.3772725,11.3615626 25.4543719,11.5769591 25.5796585,11.5976795 C25.8909474,11.6718877 26.9838316,9.56273684 26.9838316,9.56273684 C26.5000327,9.03894269 26.7640982,8.39949942 27.1409216,8.12290526 C27.3102963,8.00553097 27.5068513,7.93337788 27.7119392,7.91329123 C27.9172164,7.89305263 28.2015205,7.88775205 28.1938105,8.30023392 C28.2068211,8.7512655 27.7042292,9.29915322 27.7042292,9.29915322 C28.6776094,9.99304795 29.1305684,10.3592702 29.2067041,10.8960749 C29.2284189,11.0377992 29.218713,11.1825644 29.1782737,11.3201216 C29.8702409,10.7177825 29.9232468,10.0446082 29.9232468,10.0446082 L29.9348117,7.79282339 L28.9084257,7.77981287 C28.9084257,7.77981287 28.8298807,7.77981287 28.8120515,7.58706433 C28.798194,7.397316 28.8674803,7.21091142 29.0019088,7.0762807 L29.9810713,7.08929123 L30.0196211,5.91207953 C30.0523883,5.67114386 30.2027322,5.64367719 30.6330433,5.75498947 C31.0633544,5.86630175 31.060945,5.96460351 31.060945,5.96460351 L31.0031205,7.15434386 L32.2246643,7.21987836 C32.3692257,7.23288889 32.4145216,7.2680655 32.3817544,7.50900117 C32.379345,7.63332398 32.3123649,7.74752749 32.2049076,7.81017076 L30.9905918,7.83570994 L30.9062643,10.4474526 C30.9062643,10.8522246 30.9255392,11.8087392 31.3042901,11.7966924 C31.8343485,11.8222316 32.1461193,10.6377918 32.1461193,10.6377918 L32.1461193,10.6281544 C32.1391762,10.4095726 32.1472262,10.1907719 32.1702129,9.97329123 C32.2699602,9.02159532 32.7002713,7.9070269 33.664014,7.9070269 C34.0482512,7.91551302 34.3965432,8.13504809 34.5699322,8.47804444 L34.5858339,8.26409357 C34.5858339,8.26409357 34.5646316,8.00581053 34.9737404,8.06989942 C35.3828491,8.1339883 35.5230737,8.2954152 35.5134363,8.4250386 L35.480669,11.0623205 C35.5351205,11.633338 35.6334222,11.9672749 35.9230269,11.944145 C36.1726363,11.9070409 36.3509287,11.565876 36.4569404,11.2762713 C36.0945731,8.26264795 37.7411275,7.8969076 37.7411275,7.8969076 C37.7411275,7.8969076 38.4716444,7.84872047 38.8041357,8.45202339 L38.8137731,8.24963743 C38.8137731,8.24963743 38.7810058,7.9826807 39.1674667,8.05688889 C39.2808934,8.07425594 39.3922848,8.1029917 39.4999579,8.14266199 C39.6710222,8.20675088 39.7254737,8.24963743 39.7254737,8.40961871 L39.6927064,11.386138 C39.6927064,11.386138 40.5489918,10.2330199 40.7672795,9.11170526 C40.5947034,8.98249518 40.4898385,8.78215366 40.4820117,8.56670877 C40.503214,8.24578246 40.6651228,7.86173099 41.1373567,7.86173099 C41.6095906,7.86173099 41.6481404,8.27999532 41.578269,8.56526316 C41.578269,8.56526316 41.9748491,8.51707602 42.3189053,8.42262924 C42.6629614,8.32818246 43.1236304,8.27999532 43.1563977,8.81776374 C43.1686964,8.93576519 43.1464301,9.05479739 43.0923088,9.16037427 C43.0383392,9.26590409 42.8195696,10.3505965 42.8624561,10.8315041 C42.9053427,11.3124117 43.0335205,12.0385918 43.4103439,11.9533006 C43.7871673,11.8680094 43.915345,11.3340959 43.915345,11.3340959 C43.8213801,10.895593 43.7958409,10.4450433 43.8396912,9.99834854 C43.9394386,9.0538807 44.3620398,7.94798596 45.3325287,7.94798596 C45.7156896,7.95681989 46.0626711,8.1764636 46.2345918,8.51900351 L46.2461567,8.30505263 C46.2461567,8.30505263 46.2249544,8.0482152 46.6330994,8.11230409 C47.0412444,8.17639298 47.1809871,8.33637427 47.1694222,8.46407018 L47.136655,11.0806316 C47.1911064,11.6516491 47.2879626,11.9798035 47.5761216,11.9566737 C47.8642807,11.9335439 48.0883509,11.4786573 48.233876,11.1003883 L48.233876,10.9577544 L48.2425497,8.17928421 C48.2512234,8.09061988 48.3206129,8.02026667 48.4092772,8.01111111 L48.743214,8.06267135 C49.2106292,8.13254269 49.1455766,8.31083509 49.1455766,8.31083509 L49.1455766,9.88077193 C49.492524,8.81487251 49.6592515,8.4081731 49.8163415,8.13639766 C49.9503018,7.90509942 50.3873591,8.05640702 50.3873591,8.05640702 C50.3873591,8.05640702 50.8692304,8.18362105 50.8692304,8.62742456 C50.8547743,9.35215906 50.9578947,10.532262 50.9578947,10.532262 C50.9578947,10.532262 50.9762058,10.5563556 50.9848795,10.5481637 C50.9896982,10.5404538 50.9921076,10.5317801 50.9921076,10.5226246 C51.1270243,9.71925032 51.3619132,8.93590961 51.6913029,8.19084912 C51.8638129,7.86703158 52.3635135,8.09688421 52.3635135,8.09688421 C52.9629614,8.3021614 52.8815251,8.65778246 52.8815251,8.65778246 C52.7046784,11.704655 53.0815018,11.8969216 53.3041263,11.9171602 C53.5267509,11.9373988 53.6438456,11.6487579 53.6920327,11.5123883 C53.7402199,11.3760187 53.8028632,11.0758129 53.8346667,10.9572725 C53.8562016,10.8884659 53.9170569,10.8394014 53.9888655,10.8329497 C54.0625918,10.8440327 54.1204164,10.9018573 54.1314994,10.9755836 L54.132945,10.981848 Z M33.9136234,8.64718129 C33.7040094,8.65585497 33.2100912,8.7898152 33.1214269,10.165076 C33.0327626,11.5403368 33.3970573,11.8930667 33.7035275,11.9335439 C34.0099977,11.9740211 34.5598129,11.4805848 34.585352,10.0205146 C34.6108912,8.56044444 33.9131415,8.64718129 33.9131415,8.64718129 L33.9136234,8.64718129 Z M38.2167345,8.64718129 C38.0027836,8.65585497 37.4659789,8.84282105 37.3493661,10.1713404 C37.2592561,11.5610573 37.6346339,11.9205333 37.9401404,11.9624561 C38.2456468,12.0043789 38.7964257,11.5046784 38.8349754,10.0243696 C38.8735251,8.54406082 38.2215532,8.65440936 38.2215532,8.65440936 L38.2167345,8.64718129 Z M38.9299041,12.9098152 C37.7141427,13.9602947 37.6086129,14.7105684 37.6086129,14.7105684 C37.6086129,14.7105684 37.488145,15.3254363 38.0736187,15.356276 C38.7771509,15.427593 38.8956912,14.5727532 38.9140023,13.8248889 L38.9366503,12.9175251 L38.9299041,12.9098152 Z M45.5990035,8.69633216 C45.3893895,8.70500585 44.8954713,8.83896608 44.806807,10.2142269 C44.7181427,11.5894877 45.0824374,11.9422175 45.3889076,11.9826947 C45.6953778,12.0231719 46.245193,11.5297357 46.2707322,10.0696655 C46.2962713,8.60959532 45.5985216,8.69633216 45.5985216,8.69633216 L45.5990035,8.69633216 Z" id="Shape" fill="#16375F"></path>
                        <path d="M8.62260585,4.69198129 C8.47261713,4.6919036 8.32272172,4.6994627 8.17350175,4.71462924 C8.02694489,4.72961617 7.88123536,4.75197117 7.73692632,4.78160936 C7.59466003,4.81088937 7.45393997,4.84723534 7.31528889,4.89051228 L6.91099883,5.03941053 L6.52598363,5.22541287 L6.16265263,5.44659181 L5.8234152,5.70053801 L5.51019883,5.98484211 L5.22541287,6.29757661 L4.97146667,6.63681404 L4.75076959,6.99966316 L4.56476725,7.38419649 C4.50852594,7.51626942 4.45883282,7.65103587 4.41586901,7.78800468 C4.37250058,7.92630175 4.33636023,8.06700819 4.30696608,8.20916023 C4.27757193,8.35131228 4.25492398,8.49876491 4.23998596,8.6452538 C4.22504795,8.79174269 4.21733781,8.94256842 4.21733781,9.09387602 C4.21733781,9.2437036 4.22485231,9.39343692 4.23998596,9.54249825 C4.25494837,9.68889876 4.27730361,9.8344491 4.30696608,9.97859181 C4.33636023,10.1221895 4.37298246,10.2619322 4.41586901,10.3997474 C4.45875556,10.5375626 4.50887018,10.6720047 4.56476725,10.8040374 L4.75076959,11.1885708 L4.97146667,11.5514199 L5.22541287,11.8906573 L5.51019883,12.2033918 L5.8234152,12.4881778 L6.16265263,12.742124 L6.52598363,12.9633029 L6.91099883,13.1493053 L7.31528889,13.2982035 L7.73692632,13.4071064 C7.88100585,13.4369825 8.02701287,13.4591485 8.17350175,13.4740865 C8.47212385,13.5046626 8.77308785,13.5046626 9.07170994,13.4740865 C9.21819883,13.4591485 9.36372398,13.4365006 9.50828538,13.4071064 L9.92992281,13.2982035 L10.3342129,13.1493053 L10.7192281,12.9633029 L11.0825591,12.742124 L11.4217965,12.4881778 L11.7350129,12.2033918 L12.0197988,11.8906573 L12.2742269,11.5514199 L12.494924,11.1885708 L12.6809263,10.8040374 L12.8298246,10.3997474 C12.87314,10.2612701 12.9094866,10.1207085 12.9387275,9.97859181 L13.0057076,9.54249825 C13.0360655,9.24421988 13.0360655,8.94353216 13.0057076,8.6452538 C12.9907696,8.49876491 12.9681216,8.35323977 12.9387275,8.20916023 C12.9093333,8.0650807 12.873193,7.92630175 12.8298246,7.78800468 L12.6809263,7.38419649 L12.494924,6.99966316 L12.2742269,6.63681404 L12.0197988,6.29757661 L11.7350129,5.98484211 L11.4217965,5.70005614 L11.0825591,5.44610994 L10.7192281,5.22493099 L10.3342129,5.03892865 L9.92992281,4.89003041 L9.50828538,4.78112749 L9.07170994,4.71414737 C8.92232982,4.69872749 8.77246784,4.69149942 8.62260585,4.69149942 L8.62260585,4.69198129 Z M8.62260585,6.21132164 C8.72187135,6.21132164 8.82065497,6.21614035 8.91895673,6.22625965 L9.20615205,6.26962807 L9.48322807,6.34046316 L9.74825731,6.43683743 L10.0007579,6.55826901 L10.2383205,6.70186667 L10.4599813,6.86714854 L10.6647766,7.05266901 L10.8507789,7.25698246 L11.0165427,7.47864327 L11.1606222,7.71620585 L11.2820538,7.96870643 L11.3784281,8.23421754 C11.4068585,8.32529123 11.4299883,8.41781053 11.4492632,8.51129357 C11.46818,8.6062984 11.4826519,8.70213447 11.4926316,8.79848889 L11.5075696,9.09483977 C11.5075696,9.19381127 11.5025725,9.29271965 11.4926316,9.39119064 C11.4829942,9.48756491 11.468538,9.58345731 11.4492632,9.67838596 L11.3784281,9.95546199 L11.2820538,10.2209731 L11.1606222,10.4734737 L11.0165427,10.7110363 L10.8507789,10.9326971 L10.6647766,11.1370105 L10.4599813,11.322531 L10.2383205,11.4878129 L10.0007579,11.6318924 L9.74825731,11.753324 L9.48322807,11.8496982 L9.20615205,11.9205333 L8.91895673,11.9639018 C8.72172323,11.9836758 8.52300659,11.9836758 8.3257731,11.9639018 L8.03857778,11.9205333 L7.76150175,11.8496982 L7.49647251,11.753324 L7.24397193,11.6318924 L7.00640936,11.4878129 L6.78474854,11.322531 L6.57995322,11.1370105 L6.39395088,10.9326971 L6.22818713,10.7110363 L6.0841076,10.4734737 L5.96267602,10.2209731 L5.86581988,9.95546199 L5.7949848,9.67838596 L5.75161637,9.39119064 C5.73174506,9.19412306 5.73174506,8.99555648 5.75161637,8.79848889 C5.7612538,8.70211462 5.77570994,8.60622222 5.7949848,8.51129357 C5.81425965,8.41636491 5.83738947,8.32529123 5.86581988,8.23421754 L5.96267602,7.9691883 L6.0841076,7.71668772 L6.22818713,7.47912515 L6.39395088,7.25746433 L6.57995322,7.05315088 L6.78474854,6.86763041 L7.00640936,6.70234854 L7.24397193,6.55875088 L7.49647251,6.4373193 C7.58320936,6.40069708 7.67187368,6.3684117 7.76198363,6.34094503 L8.03954152,6.27010994 C8.1339883,6.25083509 8.2298807,6.23686082 8.32673684,6.22674152 C8.42521027,6.21683279 8.52411704,6.21184725 8.62308772,6.21180351 L8.62260585,6.21132164 Z" id="Shape" fill="url(#radialGradient-1)"></path>
                        <path d="M13.2080936,3.43959766 C13.1731714,3.43960921 13.1382719,3.44137831 13.1035275,3.44489825 C13.0688327,3.44827135 13.034138,3.45357193 12.9999251,3.4608 L12.8982503,3.48682105 L12.7999485,3.5229614 L12.7055018,3.56873918 C12.6439381,3.60242362 12.5859738,3.64230439 12.5325099,3.6877614 L12.4558924,3.75956023 C12.4317988,3.78461754 12.4081871,3.81112047 12.3865029,3.83906901 L12.3253053,3.92484211 L12.2732632,4.01639766 C12.2573614,4.0477193 12.2429053,4.08000468 12.2303766,4.11277193 L12.1971275,4.21300117 C12.1877309,4.24697449 12.1800116,4.28138959 12.1739977,4.31612164 L12.161469,4.42068772 L12.1585778,4.49537778 C12.1586053,4.53062022 12.1603743,4.56583978 12.1638784,4.6009076 L12.1792982,4.70547368 L12.2053193,4.80763041 L12.2414596,4.90689591 C12.25515,4.93927169 12.2704278,4.97095301 12.2872374,5.00182456 L12.3421708,5.0919345 L12.4057778,5.17578012 C12.4284257,5.20276491 12.4520374,5.22830409 12.4770947,5.25287953 C12.502152,5.27745497 12.528655,5.3005848 12.5561216,5.32275088 L12.6414129,5.38394854 L12.7324865,5.43647251 L12.8283789,5.47984094 L12.9281263,5.51309006 C12.9617728,5.52249392 12.9958674,5.53021346 13.030283,5.53621988 L13.1343673,5.54923041 L13.2085754,5.55163977 C13.243752,5.55163977 13.2784468,5.54971228 13.3131415,5.54633918 L13.4167439,5.53043743 C13.4510533,5.52348707 13.4849885,5.51480224 13.5184187,5.50441637 L13.6167205,5.46827602 L13.7111673,5.42249825 L13.8007953,5.36708304 C13.8586932,5.32726784 13.9124502,5.28174393 13.9612585,5.23119532 L14.030648,5.15168655 L14.0918456,5.06591345 C14.1106991,5.03627596 14.1280679,5.00571975 14.1438877,4.97435789 L14.1867743,4.87798363 C14.199523,4.84514968 14.2106199,4.81169807 14.2200234,4.77775439 C14.2291789,4.74402339 14.2368889,4.70932865 14.2431532,4.67463392 C14.2490514,4.64000651 14.2532327,4.60510849 14.2556819,4.57006784 L14.2580912,4.49537778 L14.2527906,4.38984795 L14.2368889,4.28528187 C14.229907,4.25082094 14.2212227,4.21672694 14.2108678,4.18312515 C14.2004782,4.14945661 14.1884164,4.11632699 14.1747275,4.08385965 L14.1289497,3.98893099 L14.0740164,3.89882105 C14.0542596,3.86990877 14.0330573,3.84147836 14.0104094,3.81449357 L13.9390924,3.73739415 C13.9140351,3.71281871 13.8875322,3.68968889 13.8600655,3.66800468 C13.8325988,3.64632047 13.8041684,3.6256 13.7747743,3.60680702 L13.6837006,3.55428304 C13.6523789,3.53838129 13.6205754,3.52392515 13.5878082,3.51091462 C13.5551433,3.49815046 13.5218513,3.48705313 13.4880608,3.4776655 C13.4544224,3.46823002 13.4203262,3.46051013 13.3859041,3.45453567 L13.2818199,3.44200702 L13.2076117,3.43911579 L13.2080936,3.43959766 Z" id="Path" fill="url(#radialGradient-2)"></path>
                        <path d="M7.78704094,0.481871345 C7.35671885,0.480782165 6.9263948,0.483030966 6.4961076,0.488617544 L5.46586667,0.516084211 L4.64909474,0.569090058 L4.30552047,0.606194152 L3.99760468,0.651490058 L3.71908304,0.705459649 L3.4641731,0.768584795 L3.22661053,0.841347368 L3.00061287,0.92422924 L2.55873684,1.12276023 L2.23781053,1.2981614 L1.94868772,1.49380117 L1.67112982,1.72461754 L1.38489825,2.00603041 L1.05818947,2.3761076 L0.923747368,2.55343626 L0.804243275,2.73172865 L0.697267836,2.91628538 L0.599447953,3.11144327 C0.536804678,3.24636725 0.478016374,3.39141053 0.41922807,3.55380117 L0.302615205,3.91809591 L0.208650292,4.31708538 L0.135405848,4.78064561 L0.0804725146,5.33768889 L0.041922807,6.01809123 L0.0168654971,6.85124678 L0.00337309942,7.86703158 L0,9.09339415 L0.0115649123,10.8782456 L0.0467415205,12.2308585 L0.0737263158,12.7589895 L0.107939181,13.1965287 L0.148898246,13.5497404 L0.19708538,13.8239251 L0.320926316,14.3004959 L0.477052632,14.7452632 L0.665946199,15.1587088 C0.733593896,15.289854 0.807733357,15.4175476 0.888088889,15.5413146 C0.967597661,15.6637099 1.05240702,15.7812865 1.1434807,15.8935626 C1.23455439,16.0058386 1.33044678,16.1137778 1.43212164,16.2159345 C1.53379649,16.3180912 1.64173567,16.416393 1.75497544,16.5093942 L2.11204211,16.7739415 L2.45368889,16.9850012 L2.80111813,17.1608842 L3.16734035,17.3044819 L3.56536608,17.4196491 L4.00868772,17.5092772 L4.51031579,17.5767392 L5.08374269,17.6249263 L5.74197895,17.6572117 L7.28734035,17.6808234 L9.33770292,17.6764865 L11.2791626,17.6495018 L12.0173895,17.6287813 L12.4982971,17.6042058 L12.7999485,17.5743298 L13.0871439,17.5343345 L13.3622924,17.483738 L13.6273216,17.4215766 L13.8851228,17.3478503 L14.1376234,17.2615953 L14.3872327,17.1623298 L14.6363602,17.0490901 L14.9572865,16.8862175 C15.0422078,16.8395811 15.12398,16.7874271 15.2020772,16.7300912 C15.2791766,16.6732304 15.3557942,16.6086596 15.4439766,16.5272234 L15.7562292,16.2236444 L16.0361965,15.9340398 L16.2405099,15.6959953 C16.296407,15.6251602 16.3484491,15.5514339 16.3961544,15.4752982 L16.5296327,15.2377357 L16.7069614,14.8734409 L16.8467041,14.5342035 L16.9546433,14.1867743 L17.0355977,13.798386 L17.0953497,13.3357895 L17.1396819,12.7662175 L17.1734129,12.0569029 L17.2023251,11.1750784 L17.2230456,10.1925427 L17.2312374,9.16519298 L17.2129263,7.14711579 L17.1883509,6.24312515 L17.1546199,5.46731228 L17.1126971,4.86208187 L17.0635462,4.47128421 L16.9989754,4.1754152 L16.9223579,3.89111111 L16.8341754,3.61789006 L16.7349099,3.35623392 L16.6231158,3.10566082 L16.4997567,2.86665263 L16.3648327,2.63872749 L16.217862,2.42236725 L16.0593263,2.21709006 L15.8892257,2.02337778 L15.7075602,1.84123041 L15.5143298,1.67016608 L15.3090526,1.51066667 L15.0922105,1.36273216 L14.8638035,1.2258807 L14.6238316,1.10059415 L14.2421895,0.925192982 L13.8745216,0.788823392 C13.7492351,0.749309942 13.618648,0.715578947 13.4750503,0.686184795 L12.9979977,0.611976608 L12.3971041,0.560416374 L11.6261099,0.52668538 L10.6387556,0.504519298 L9.38926316,0.490063158 L7.78896842,0.480425731 L7.78704094,0.481871345 Z M8.61826901,1.99976608 L10.9259509,2.01277661 L11.7962105,2.02964211 L12.326269,2.0532538 L12.7262222,2.09758596 L13.090517,2.16071111 L13.4230082,2.24359298 L13.727069,2.34815906 L14.0060725,2.47585497 C14.0946168,2.52205648 14.1806695,2.57288382 14.2638737,2.62812632 C14.3468498,2.68325743 14.4269456,2.74260547 14.5038456,2.80593684 L14.7298433,3.01121404 C14.8055737,3.08626391 14.8773107,3.16523894 14.9447579,3.24781287 C15.0103376,3.32841631 15.0710026,3.41289678 15.1264234,3.50079532 C15.1825355,3.58993913 15.2330682,3.68247522 15.277731,3.77787135 C15.3248206,3.87840584 15.3661673,3.98153145 15.4015719,4.08675088 L15.5003556,4.43562573 L15.5769731,4.83268772 L15.6338339,5.28612865 L15.6738292,5.80365848 L15.6964772,6.37612164 L15.7128608,7.16109006 L15.7253895,9.08327485 L15.7114152,11.0035322 L15.6945497,11.7860912 L15.6714199,12.3551813 L15.6179322,13.0404023 L15.584683,13.3126596 L15.543724,13.551186 L15.4936094,13.7665825 L15.4324117,13.9684865 L15.3582035,14.1670175 L15.2685754,14.3722947 L15.1799111,14.5486596 L15.0820912,14.7153871 L14.9746339,14.8724772 L14.8570573,15.0199298 L14.7298433,15.157745 L14.5925099,15.2864047 L14.4450573,15.4059088 L14.2870035,15.5162573 L14.1183485,15.6174503 L13.9390924,15.7099696 L13.7487532,15.7933333 L13.547331,15.8680234 C13.4095158,15.9152468 13.2639906,15.9562058 13.1107556,15.9918643 L12.6274386,16.0824561 C12.5647953,16.0916117 12.4216795,16.1002854 12.2164023,16.1079953 L11.4338433,16.1296795 L9.2153076,16.1585918 L6.89316959,16.1624468 L5.98146901,16.1528094 L5.38924912,16.1344982 L4.95267368,16.1036585 L4.57295906,16.0651088 L4.24143158,16.0164398 L3.94893567,15.955724 L3.68727953,15.880552 L3.4473076,15.7889965 L3.22082807,15.6791298 L2.99868538,15.5485427 L2.83629474,15.438676 L2.68498713,15.3220632 L2.54476257,15.1987041 L2.41562105,15.0676351 L2.29659883,14.9278924 L2.18769591,14.7789942 L2.08843041,14.6199766 L1.99880234,14.4503579 L1.91784795,14.2696561 L1.84556725,14.0769076 C1.79846982,13.9375438 1.75858228,13.7958465 1.72606316,13.6523789 L1.63691696,13.1709895 L1.5757193,12.6274386 L1.54728889,11.9870316 L1.53235088,10.9977497 L1.53765146,8.47515322 L1.58101988,6.06483275 L1.61426901,5.21577544 L1.63306199,4.93532632 L1.65330058,4.77149006 L1.72269006,4.46405614 L1.79641637,4.1956538 L1.8783345,3.95905497 L1.97181754,3.74703158 L2.0802386,3.55235556 L2.20745263,3.3682807 L2.35683275,3.18709708 L2.53175205,3.00205848 L2.76112281,2.78955322 C2.83608565,2.72585607 2.91425047,2.66602621 2.99531228,2.61029708 C3.07436988,2.555686 3.1565926,2.50580529 3.24154854,2.46091696 C3.32683977,2.41562105 3.41502222,2.37514386 3.50802339,2.33803977 L3.80244678,2.23877427 L4.13204678,2.16071111 L4.50453333,2.10047719 L4.92761637,2.05518129 L5.45141053,2.03108772 L6.31733333,2.01374035 L8.62116023,1.99976608 L8.61826901,1.99976608 Z" id="Shape" fill="url(#radialGradient-3)"></path>
                    </g>
                </g>
            </g>
            <g id="D">
                <g id="Group">
                    <path d="M19.3707462,6.34961871 C20.0453661,5.68752749 20.4636304,5.66724654 20.4636304,5.66724654 C20.6188214,5.66592629 20.7725402,5.69745836 20.914662,5.75980819 C21.2341427,5.8706386 21.2519719,6.04507602 21.2519719,6.04507602 L21.2519719,10.8975205 C21.2934129,12.2544702 20.9551392,12.7753731 20.551331,13.1382222 C20.4289357,13.2495345 20.2766643,13.3227789 20.1133099,13.3492819 C20.0877708,13.3555462 20.0603041,13.3502456 20.0391018,13.333862 C20.0178994,13.3174784 20.0053708,13.2929029 20.0048889,13.2664 C20.0115915,13.1726179 20.0317138,13.0802823 20.0646409,12.9922152 C20.2684725,12.4684211 20.251607,11.5682854 20.251607,11.5682854 L20.2708819,6.3448 C20.2708819,6.3448 20.2867836,6.24842573 20.2053474,6.28793918 C19.4092959,6.97219649 19.3090667,7.93883041 19.2835275,8.40720936 C19.270517,9.10929591 19.5687953,9.46732632 19.5687953,9.46732632 C19.615055,9.51069474 19.6401123,9.5718924 19.6372211,9.63549942 C19.6405942,9.66923041 19.6280655,9.7029614 19.6044538,9.72705497 C19.5808421,9.75114854 19.5471111,9.76319532 19.5128982,9.75982222 C19.2131743,9.73090994 18.7351579,9.3936 18.5655392,8.98882807 C18.476393,8.79126082 18.427724,8.57779181 18.4229053,8.36094971 C18.4982857,7.60084349 18.8345731,6.89029808 19.3746012,6.35010058 L19.3707462,6.34961871 Z M54.132945,10.981848 C54.132945,12.5402199 53.1884772,12.5156444 53.1884772,12.5156444 C52.2893053,12.5469661 52.0599345,11.5981614 52.0040374,10.633455 C51.9558503,9.90727485 52.0040374,9.09965848 52.0040374,9.09965848 C52.0040374,9.09965848 52.0040374,9.06255439 51.9727158,9.09965848 C51.6715462,9.6441731 51.4677146,10.4729918 51.3674854,11.112917 C51.3236351,11.3962573 51.2966503,11.6824889 51.2874947,11.9692023 C51.2971322,12.0246175 51.2730386,12.0805146 51.2262971,12.1118363 C50.7381614,12.3359064 50.4244632,12.0178713 50.3131509,11.6622503 C50.170517,11.3249404 50.0789614,9.29915322 50.0789614,9.19362339 C50.0789614,9.08809357 49.9946339,9.16085614 49.9946339,9.16085614 C49.3180865,10.2836164 49.3123041,11.948 49.3123041,12.2819368 C49.3123041,12.6158737 48.7412865,12.5132351 48.7412865,12.5132351 C48.2531509,12.476131 48.2719439,12.2385684 48.2719439,12.2385684 L48.2492959,11.8362058 C48.0796772,12.1494222 47.7654971,12.5493754 47.2855532,12.5223906 C46.552145,12.4751673 46.4109567,11.7162199 46.3989099,11.5875602 C46.3989099,11.5875602 46.0336515,12.5320281 45.0303953,12.5223906 C44.3480655,12.5108257 44.0743626,11.8092211 44.0743626,11.8092211 C44.0743626,11.8092211 43.7996959,12.5464842 43.1298947,12.5223906 C42.4600936,12.4982971 41.9059415,11.7224842 41.9483462,10.7173006 C41.9575018,10.2084444 42.0254456,9.70199766 42.151214,9.20904327 C42.2769825,8.71608889 42.2056655,9.11266901 42.1141099,9.10206784 C42.0225544,9.09146667 41.443345,9.11170526 41.443345,9.11170526 C41.443345,9.11170526 41.1156725,10.4257684 39.7307743,12.0597942 L39.7404117,13.139186 C39.7404117,14.2137591 39.6064515,15.6545544 38.1502363,15.772131 C36.8915883,15.6863579 36.9629053,14.712014 36.9629053,14.712014 C36.9330292,14.4267462 37.1074667,13.9015064 37.8640047,13.1965287 L38.9144842,12.2202573 L38.8846082,11.7692257 C38.4037006,12.5643135 37.6688468,12.5199813 37.6688468,12.5199813 C37.6688468,12.5199813 37.0978292,12.6356304 36.623186,11.7909099 C36.480552,12.0761778 36.1634807,12.5744327 35.641614,12.5170901 C34.9082058,12.4351719 34.7626807,11.7051368 34.7511158,11.5750316 C34.7511158,11.5750316 34.3848936,12.5281731 33.3753731,12.5170901 C32.6911158,12.5055251 32.4150035,11.7966924 32.4150035,11.7966924 C32.3388678,11.6400842 32.2810433,11.4752842 32.2424936,11.3056655 L32.2126175,11.3943298 C32.0569731,11.7923556 31.6729216,12.4843228 31.0826292,12.4929965 C29.9984187,12.4929965 29.9526409,10.8122292 29.9526409,10.8122292 C29.6360515,11.5639485 29.023593,12.5132351 27.8820398,12.5074526 C26.7404865,12.5016702 26.5978526,12.0891883 26.5978526,12.0294363 C26.5899402,11.9138263 26.6302336,11.8000978 26.7091649,11.7152561 C26.8402339,11.5253988 26.9501006,11.4468538 27.0464749,11.4468538 C27.1418854,11.4733567 27.2291041,11.5225076 27.3018667,11.5894877 C27.4460638,11.7276077 27.6326612,11.8130112 27.8314433,11.831869 C28.1909193,11.8188585 28.2651275,11.5306994 28.2950035,11.2367579 C28.3248795,10.9428164 28.1118924,10.6286363 27.8242152,10.3664982 L27.3163228,9.90293801 L26.3631813,11.4728749 C25.8080655,12.3763836 25.2572865,12.5161263 25.0447813,12.4876959 C24.7556585,12.4477006 24.4737637,12.1479766 24.4568982,11.2704889 L24.5224327,8.81294503 C24.5224327,8.7344 24.4511158,8.77294971 24.4511158,8.77294971 C23.3538947,9.93715088 23.0247766,12.3320515 23.0247766,12.378793 C22.985745,12.4481825 22.9081637,12.487214 22.8291368,12.4770947 C22.7308351,12.4770947 22.8619041,12.4770947 22.4696608,12.4578199 C22.0774175,12.438545 22.1044023,11.7027275 22.1044023,11.7027275 L22.1299415,8.13543392 C22.1299415,8.01689357 22.2470363,7.9658152 22.6195228,8.06411696 C22.9920094,8.16241871 22.9789988,8.27806784 22.9789988,8.27806784 L22.9659883,10.3501146 C23.9263579,7.51767485 24.6510924,7.96147836 25.0895953,8.17832047 C25.5280982,8.39516257 25.4620819,8.70645146 25.4620819,8.70645146 L25.3965474,10.8122292 C25.3772725,11.3615626 25.4543719,11.5769591 25.5796585,11.5976795 C25.8909474,11.6718877 26.9838316,9.56273684 26.9838316,9.56273684 C26.5000327,9.03894269 26.7640982,8.39949942 27.1409216,8.12290526 C27.3102963,8.00553097 27.5068513,7.93337788 27.7119392,7.91329123 C27.9172164,7.89305263 28.2015205,7.88775205 28.1938105,8.30023392 C28.2068211,8.7512655 27.7042292,9.29915322 27.7042292,9.29915322 C28.6776094,9.99304795 29.1305684,10.3592702 29.2067041,10.8960749 C29.2284189,11.0377992 29.218713,11.1825644 29.1782737,11.3201216 C29.8702409,10.7177825 29.9232468,10.0446082 29.9232468,10.0446082 L29.9348117,7.79282339 L28.9084257,7.77981287 C28.9084257,7.77981287 28.8298807,7.77981287 28.8120515,7.58706433 C28.798194,7.397316 28.8674803,7.21091142 29.0019088,7.0762807 L29.9810713,7.08929123 L30.0196211,5.91207953 C30.0523883,5.67114386 30.2027322,5.64367719 30.6330433,5.75498947 C31.0633544,5.86630175 31.060945,5.96460351 31.060945,5.96460351 L31.0031205,7.15434386 L32.2246643,7.21987836 C32.3692257,7.23288889 32.4145216,7.2680655 32.3817544,7.50900117 C32.379345,7.63332398 32.3123649,7.74752749 32.2049076,7.81017076 L30.9905918,7.83570994 L30.9062643,10.4474526 C30.9062643,10.8522246 30.9255392,11.8087392 31.3042901,11.7966924 C31.8343485,11.8222316 32.1461193,10.6377918 32.1461193,10.6377918 L32.1461193,10.6281544 C32.1391762,10.4095726 32.1472262,10.1907719 32.1702129,9.97329123 C32.2699602,9.02159532 32.7002713,7.9070269 33.664014,7.9070269 C34.0482512,7.91551302 34.3965432,8.13504809 34.5699322,8.47804444 L34.5858339,8.26409357 C34.5858339,8.26409357 34.5646316,8.00581053 34.9737404,8.06989942 C35.3828491,8.1339883 35.5230737,8.2954152 35.5134363,8.4250386 L35.480669,11.0623205 C35.5351205,11.633338 35.6334222,11.9672749 35.9230269,11.944145 C36.1726363,11.9070409 36.3509287,11.565876 36.4569404,11.2762713 C36.0945731,8.26264795 37.7411275,7.8969076 37.7411275,7.8969076 C37.7411275,7.8969076 38.4716444,7.84872047 38.8041357,8.45202339 L38.8137731,8.24963743 C38.8137731,8.24963743 38.7810058,7.9826807 39.1674667,8.05688889 C39.2808934,8.07425594 39.3922848,8.1029917 39.4999579,8.14266199 C39.6710222,8.20675088 39.7254737,8.24963743 39.7254737,8.40961871 L39.6927064,11.386138 C39.6927064,11.386138 40.5489918,10.2330199 40.7672795,9.11170526 C40.5947034,8.98249518 40.4898385,8.78215366 40.4820117,8.56670877 C40.503214,8.24578246 40.6651228,7.86173099 41.1373567,7.86173099 C41.6095906,7.86173099 41.6481404,8.27999532 41.578269,8.56526316 C41.578269,8.56526316 41.9748491,8.51707602 42.3189053,8.42262924 C42.6629614,8.32818246 43.1236304,8.27999532 43.1563977,8.81776374 C43.1686964,8.93576519 43.1464301,9.05479739 43.0923088,9.16037427 C43.0383392,9.26590409 42.8195696,10.3505965 42.8624561,10.8315041 C42.9053427,11.3124117 43.0335205,12.0385918 43.4103439,11.9533006 C43.7871673,11.8680094 43.915345,11.3340959 43.915345,11.3340959 C43.8213801,10.895593 43.7958409,10.4450433 43.8396912,9.99834854 C43.9394386,9.0538807 44.3620398,7.94798596 45.3325287,7.94798596 C45.7156896,7.95681989 46.0626711,8.1764636 46.2345918,8.51900351 L46.2461567,8.30505263 C46.2461567,8.30505263 46.2249544,8.0482152 46.6330994,8.11230409 C47.0412444,8.17639298 47.1809871,8.33637427 47.1694222,8.46407018 L47.136655,11.0806316 C47.1911064,11.6516491 47.2879626,11.9798035 47.5761216,11.9566737 C47.8642807,11.9335439 48.0883509,11.4786573 48.233876,11.1003883 L48.233876,10.9577544 L48.2425497,8.17928421 C48.2512234,8.09061988 48.3206129,8.02026667 48.4092772,8.01111111 L48.743214,8.06267135 C49.2106292,8.13254269 49.1455766,8.31083509 49.1455766,8.31083509 L49.1455766,9.88077193 C49.492524,8.81487251 49.6592515,8.4081731 49.8163415,8.13639766 C49.9503018,7.90509942 50.3873591,8.05640702 50.3873591,8.05640702 C50.3873591,8.05640702 50.8692304,8.18362105 50.8692304,8.62742456 C50.8547743,9.35215906 50.9578947,10.532262 50.9578947,10.532262 C50.9578947,10.532262 50.9762058,10.5563556 50.9848795,10.5481637 C50.9896982,10.5404538 50.9921076,10.5317801 50.9921076,10.5226246 C51.1270243,9.71925032 51.3619132,8.93590961 51.6913029,8.19084912 C51.8638129,7.86703158 52.3635135,8.09688421 52.3635135,8.09688421 C52.9629614,8.3021614 52.8815251,8.65778246 52.8815251,8.65778246 C52.7046784,11.704655 53.0815018,11.8969216 53.3041263,11.9171602 C53.5267509,11.9373988 53.6438456,11.6487579 53.6920327,11.5123883 C53.7402199,11.3760187 53.8028632,11.0758129 53.8346667,10.9572725 C53.8562016,10.8884659 53.9170569,10.8394014 53.9888655,10.8329497 C54.0625918,10.8440327 54.1204164,10.9018573 54.1314994,10.9755836 L54.132945,10.981848 Z M33.9136234,8.64718129 C33.7040094,8.65585497 33.2100912,8.7898152 33.1214269,10.165076 C33.0327626,11.5403368 33.3970573,11.8930667 33.7035275,11.9335439 C34.0099977,11.9740211 34.5598129,11.4805848 34.585352,10.0205146 C34.6108912,8.56044444 33.9131415,8.64718129 33.9131415,8.64718129 L33.9136234,8.64718129 Z M38.2167345,8.64718129 C38.0027836,8.65585497 37.4659789,8.84282105 37.3493661,10.1713404 C37.2592561,11.5610573 37.6346339,11.9205333 37.9401404,11.9624561 C38.2456468,12.0043789 38.7964257,11.5046784 38.8349754,10.0243696 C38.8735251,8.54406082 38.2215532,8.65440936 38.2215532,8.65440936 L38.2167345,8.64718129 Z M38.9299041,12.9098152 C37.7141427,13.9602947 37.6086129,14.7105684 37.6086129,14.7105684 C37.6086129,14.7105684 37.488145,15.3254363 38.0736187,15.356276 C38.7771509,15.427593 38.8956912,14.5727532 38.9140023,13.8248889 L38.9366503,12.9175251 L38.9299041,12.9098152 Z M45.5990035,8.69633216 C45.3893895,8.70500585 44.8954713,8.83896608 44.806807,10.2142269 C44.7181427,11.5894877 45.0824374,11.9422175 45.3889076,11.9826947 C45.6953778,12.0231719 46.245193,11.5297357 46.2707322,10.0696655 C46.2962713,8.60959532 45.5985216,8.69633216 45.5985216,8.69633216 L45.5990035,8.69633216 Z" id="Shape" fill="#FFFFFF"></path>
                    <path d="M8.62260585,4.69198129 C8.47261713,4.6919036 8.32272172,4.6994627 8.17350175,4.71462924 C8.02694489,4.72961617 7.88123536,4.75197117 7.73692632,4.78160936 C7.59466003,4.81088937 7.45393997,4.84723534 7.31528889,4.89051228 L6.91099883,5.03941053 L6.52598363,5.22541287 L6.16265263,5.44659181 L5.8234152,5.70053801 L5.51019883,5.98484211 L5.22541287,6.29757661 L4.97146667,6.63681404 L4.75076959,6.99966316 L4.56476725,7.38419649 C4.50852594,7.51626942 4.45883282,7.65103587 4.41586901,7.78800468 C4.37250058,7.92630175 4.33636023,8.06700819 4.30696608,8.20916023 C4.27757193,8.35131228 4.25492398,8.49876491 4.23998596,8.6452538 C4.22504795,8.79174269 4.21733781,8.94256842 4.21733781,9.09387602 C4.21733781,9.2437036 4.22485231,9.39343692 4.23998596,9.54249825 C4.25494837,9.68889876 4.27730361,9.8344491 4.30696608,9.97859181 C4.33636023,10.1221895 4.37298246,10.2619322 4.41586901,10.3997474 C4.45875556,10.5375626 4.50887018,10.6720047 4.56476725,10.8040374 L4.75076959,11.1885708 L4.97146667,11.5514199 L5.22541287,11.8906573 L5.51019883,12.2033918 L5.8234152,12.4881778 L6.16265263,12.742124 L6.52598363,12.9633029 L6.91099883,13.1493053 L7.31528889,13.2982035 L7.73692632,13.4071064 C7.88100585,13.4369825 8.02701287,13.4591485 8.17350175,13.4740865 C8.47212385,13.5046626 8.77308785,13.5046626 9.07170994,13.4740865 C9.21819883,13.4591485 9.36372398,13.4365006 9.50828538,13.4071064 L9.92992281,13.2982035 L10.3342129,13.1493053 L10.7192281,12.9633029 L11.0825591,12.742124 L11.4217965,12.4881778 L11.7350129,12.2033918 L12.0197988,11.8906573 L12.2742269,11.5514199 L12.494924,11.1885708 L12.6809263,10.8040374 L12.8298246,10.3997474 C12.87314,10.2612701 12.9094866,10.1207085 12.9387275,9.97859181 L13.0057076,9.54249825 C13.0360655,9.24421988 13.0360655,8.94353216 13.0057076,8.6452538 C12.9907696,8.49876491 12.9681216,8.35323977 12.9387275,8.20916023 C12.9093333,8.0650807 12.873193,7.92630175 12.8298246,7.78800468 L12.6809263,7.38419649 L12.494924,6.99966316 L12.2742269,6.63681404 L12.0197988,6.29757661 L11.7350129,5.98484211 L11.4217965,5.70005614 L11.0825591,5.44610994 L10.7192281,5.22493099 L10.3342129,5.03892865 L9.92992281,4.89003041 L9.50828538,4.78112749 L9.07170994,4.71414737 C8.92232982,4.69872749 8.77246784,4.69149942 8.62260585,4.69149942 L8.62260585,4.69198129 Z M8.62260585,6.21132164 C8.72187135,6.21132164 8.82065497,6.21614035 8.91895673,6.22625965 L9.20615205,6.26962807 L9.48322807,6.34046316 L9.74825731,6.43683743 L10.0007579,6.55826901 L10.2383205,6.70186667 L10.4599813,6.86714854 L10.6647766,7.05266901 L10.8507789,7.25698246 L11.0165427,7.47864327 L11.1606222,7.71620585 L11.2820538,7.96870643 L11.3784281,8.23421754 C11.4068585,8.32529123 11.4299883,8.41781053 11.4492632,8.51129357 C11.46818,8.6062984 11.4826519,8.70213447 11.4926316,8.79848889 L11.5075696,9.09483977 C11.5075696,9.19381127 11.5025725,9.29271965 11.4926316,9.39119064 C11.4829942,9.48756491 11.468538,9.58345731 11.4492632,9.67838596 L11.3784281,9.95546199 L11.2820538,10.2209731 L11.1606222,10.4734737 L11.0165427,10.7110363 L10.8507789,10.9326971 L10.6647766,11.1370105 L10.4599813,11.322531 L10.2383205,11.4878129 L10.0007579,11.6318924 L9.74825731,11.753324 L9.48322807,11.8496982 L9.20615205,11.9205333 L8.91895673,11.9639018 C8.72172323,11.9836758 8.52300659,11.9836758 8.3257731,11.9639018 L8.03857778,11.9205333 L7.76150175,11.8496982 L7.49647251,11.753324 L7.24397193,11.6318924 L7.00640936,11.4878129 L6.78474854,11.322531 L6.57995322,11.1370105 L6.39395088,10.9326971 L6.22818713,10.7110363 L6.0841076,10.4734737 L5.96267602,10.2209731 L5.86581988,9.95546199 L5.7949848,9.67838596 L5.75161637,9.39119064 C5.73174506,9.19412306 5.73174506,8.99555648 5.75161637,8.79848889 C5.7612538,8.70211462 5.77570994,8.60622222 5.7949848,8.51129357 C5.81425965,8.41636491 5.83738947,8.32529123 5.86581988,8.23421754 L5.96267602,7.9691883 L6.0841076,7.71668772 L6.22818713,7.47912515 L6.39395088,7.25746433 L6.57995322,7.05315088 L6.78474854,6.86763041 L7.00640936,6.70234854 L7.24397193,6.55875088 L7.49647251,6.4373193 C7.58320936,6.40069708 7.67187368,6.3684117 7.76198363,6.34094503 L8.03954152,6.27010994 C8.1339883,6.25083509 8.2298807,6.23686082 8.32673684,6.22674152 C8.42521027,6.21683279 8.52411704,6.21184725 8.62308772,6.21180351 L8.62260585,6.21132164 Z" id="Shape" fill="url(#radialGradient-1)"></path>
                    <path d="M13.2080936,3.43959766 C13.1731714,3.43960921 13.1382719,3.44137831 13.1035275,3.44489825 C13.0688327,3.44827135 13.034138,3.45357193 12.9999251,3.4608 L12.8982503,3.48682105 L12.7999485,3.5229614 L12.7055018,3.56873918 C12.6439381,3.60242362 12.5859738,3.64230439 12.5325099,3.6877614 L12.4558924,3.75956023 C12.4317988,3.78461754 12.4081871,3.81112047 12.3865029,3.83906901 L12.3253053,3.92484211 L12.2732632,4.01639766 C12.2573614,4.0477193 12.2429053,4.08000468 12.2303766,4.11277193 L12.1971275,4.21300117 C12.1877309,4.24697449 12.1800116,4.28138959 12.1739977,4.31612164 L12.161469,4.42068772 L12.1585778,4.49537778 C12.1586053,4.53062022 12.1603743,4.56583978 12.1638784,4.6009076 L12.1792982,4.70547368 L12.2053193,4.80763041 L12.2414596,4.90689591 C12.25515,4.93927169 12.2704278,4.97095301 12.2872374,5.00182456 L12.3421708,5.0919345 L12.4057778,5.17578012 C12.4284257,5.20276491 12.4520374,5.22830409 12.4770947,5.25287953 C12.502152,5.27745497 12.528655,5.3005848 12.5561216,5.32275088 L12.6414129,5.38394854 L12.7324865,5.43647251 L12.8283789,5.47984094 L12.9281263,5.51309006 C12.9617728,5.52249392 12.9958674,5.53021346 13.030283,5.53621988 L13.1343673,5.54923041 L13.2085754,5.55163977 C13.243752,5.55163977 13.2784468,5.54971228 13.3131415,5.54633918 L13.4167439,5.53043743 C13.4510533,5.52348707 13.4849885,5.51480224 13.5184187,5.50441637 L13.6167205,5.46827602 L13.7111673,5.42249825 L13.8007953,5.36708304 C13.8586932,5.32726784 13.9124502,5.28174393 13.9612585,5.23119532 L14.030648,5.15168655 L14.0918456,5.06591345 C14.1106991,5.03627596 14.1280679,5.00571975 14.1438877,4.97435789 L14.1867743,4.87798363 C14.199523,4.84514968 14.2106199,4.81169807 14.2200234,4.77775439 C14.2291789,4.74402339 14.2368889,4.70932865 14.2431532,4.67463392 C14.2490514,4.64000651 14.2532327,4.60510849 14.2556819,4.57006784 L14.2580912,4.49537778 L14.2527906,4.38984795 L14.2368889,4.28528187 C14.229907,4.25082094 14.2212227,4.21672694 14.2108678,4.18312515 C14.2004782,4.14945661 14.1884164,4.11632699 14.1747275,4.08385965 L14.1289497,3.98893099 L14.0740164,3.89882105 C14.0542596,3.86990877 14.0330573,3.84147836 14.0104094,3.81449357 L13.9390924,3.73739415 C13.9140351,3.71281871 13.8875322,3.68968889 13.8600655,3.66800468 C13.8325988,3.64632047 13.8041684,3.6256 13.7747743,3.60680702 L13.6837006,3.55428304 C13.6523789,3.53838129 13.6205754,3.52392515 13.5878082,3.51091462 C13.5551433,3.49815046 13.5218513,3.48705313 13.4880608,3.4776655 C13.4544224,3.46823002 13.4203262,3.46051013 13.3859041,3.45453567 L13.2818199,3.44200702 L13.2076117,3.43911579 L13.2080936,3.43959766 Z" id="Path" fill="url(#radialGradient-2)"></path>
                    <path d="M7.78704094,0.481871345 C7.35671885,0.480782165 6.9263948,0.483030966 6.4961076,0.488617544 L5.46586667,0.516084211 L4.64909474,0.569090058 L4.30552047,0.606194152 L3.99760468,0.651490058 L3.71908304,0.705459649 L3.4641731,0.768584795 L3.22661053,0.841347368 L3.00061287,0.92422924 L2.55873684,1.12276023 L2.23781053,1.2981614 L1.94868772,1.49380117 L1.67112982,1.72461754 L1.38489825,2.00603041 L1.05818947,2.3761076 L0.923747368,2.55343626 L0.804243275,2.73172865 L0.697267836,2.91628538 L0.599447953,3.11144327 C0.536804678,3.24636725 0.478016374,3.39141053 0.41922807,3.55380117 L0.302615205,3.91809591 L0.208650292,4.31708538 L0.135405848,4.78064561 L0.0804725146,5.33768889 L0.041922807,6.01809123 L0.0168654971,6.85124678 L0.00337309942,7.86703158 L0,9.09339415 L0.0115649123,10.8782456 L0.0467415205,12.2308585 L0.0737263158,12.7589895 L0.107939181,13.1965287 L0.148898246,13.5497404 L0.19708538,13.8239251 L0.320926316,14.3004959 L0.477052632,14.7452632 L0.665946199,15.1587088 C0.733593896,15.289854 0.807733357,15.4175476 0.888088889,15.5413146 C0.967597661,15.6637099 1.05240702,15.7812865 1.1434807,15.8935626 C1.23455439,16.0058386 1.33044678,16.1137778 1.43212164,16.2159345 C1.53379649,16.3180912 1.64173567,16.416393 1.75497544,16.5093942 L2.11204211,16.7739415 L2.45368889,16.9850012 L2.80111813,17.1608842 L3.16734035,17.3044819 L3.56536608,17.4196491 L4.00868772,17.5092772 L4.51031579,17.5767392 L5.08374269,17.6249263 L5.74197895,17.6572117 L7.28734035,17.6808234 L9.33770292,17.6764865 L11.2791626,17.6495018 L12.0173895,17.6287813 L12.4982971,17.6042058 L12.7999485,17.5743298 L13.0871439,17.5343345 L13.3622924,17.483738 L13.6273216,17.4215766 L13.8851228,17.3478503 L14.1376234,17.2615953 L14.3872327,17.1623298 L14.6363602,17.0490901 L14.9572865,16.8862175 C15.0422078,16.8395811 15.12398,16.7874271 15.2020772,16.7300912 C15.2791766,16.6732304 15.3557942,16.6086596 15.4439766,16.5272234 L15.7562292,16.2236444 L16.0361965,15.9340398 L16.2405099,15.6959953 C16.296407,15.6251602 16.3484491,15.5514339 16.3961544,15.4752982 L16.5296327,15.2377357 L16.7069614,14.8734409 L16.8467041,14.5342035 L16.9546433,14.1867743 L17.0355977,13.798386 L17.0953497,13.3357895 L17.1396819,12.7662175 L17.1734129,12.0569029 L17.2023251,11.1750784 L17.2230456,10.1925427 L17.2312374,9.16519298 L17.2129263,7.14711579 L17.1883509,6.24312515 L17.1546199,5.46731228 L17.1126971,4.86208187 L17.0635462,4.47128421 L16.9989754,4.1754152 L16.9223579,3.89111111 L16.8341754,3.61789006 L16.7349099,3.35623392 L16.6231158,3.10566082 L16.4997567,2.86665263 L16.3648327,2.63872749 L16.217862,2.42236725 L16.0593263,2.21709006 L15.8892257,2.02337778 L15.7075602,1.84123041 L15.5143298,1.67016608 L15.3090526,1.51066667 L15.0922105,1.36273216 L14.8638035,1.2258807 L14.6238316,1.10059415 L14.2421895,0.925192982 L13.8745216,0.788823392 C13.7492351,0.749309942 13.618648,0.715578947 13.4750503,0.686184795 L12.9979977,0.611976608 L12.3971041,0.560416374 L11.6261099,0.52668538 L10.6387556,0.504519298 L9.38926316,0.490063158 L7.78896842,0.480425731 L7.78704094,0.481871345 Z M8.61826901,1.99976608 L10.9259509,2.01277661 L11.7962105,2.02964211 L12.326269,2.0532538 L12.7262222,2.09758596 L13.090517,2.16071111 L13.4230082,2.24359298 L13.727069,2.34815906 L14.0060725,2.47585497 C14.0946168,2.52205648 14.1806695,2.57288382 14.2638737,2.62812632 C14.3468498,2.68325743 14.4269456,2.74260547 14.5038456,2.80593684 L14.7298433,3.01121404 C14.8055737,3.08626391 14.8773107,3.16523894 14.9447579,3.24781287 C15.0103376,3.32841631 15.0710026,3.41289678 15.1264234,3.50079532 C15.1825355,3.58993913 15.2330682,3.68247522 15.277731,3.77787135 C15.3248206,3.87840584 15.3661673,3.98153145 15.4015719,4.08675088 L15.5003556,4.43562573 L15.5769731,4.83268772 L15.6338339,5.28612865 L15.6738292,5.80365848 L15.6964772,6.37612164 L15.7128608,7.16109006 L15.7253895,9.08327485 L15.7114152,11.0035322 L15.6945497,11.7860912 L15.6714199,12.3551813 L15.6179322,13.0404023 L15.584683,13.3126596 L15.543724,13.551186 L15.4936094,13.7665825 L15.4324117,13.9684865 L15.3582035,14.1670175 L15.2685754,14.3722947 L15.1799111,14.5486596 L15.0820912,14.7153871 L14.9746339,14.8724772 L14.8570573,15.0199298 L14.7298433,15.157745 L14.5925099,15.2864047 L14.4450573,15.4059088 L14.2870035,15.5162573 L14.1183485,15.6174503 L13.9390924,15.7099696 L13.7487532,15.7933333 L13.547331,15.8680234 C13.4095158,15.9152468 13.2639906,15.9562058 13.1107556,15.9918643 L12.6274386,16.0824561 C12.5647953,16.0916117 12.4216795,16.1002854 12.2164023,16.1079953 L11.4338433,16.1296795 L9.2153076,16.1585918 L6.89316959,16.1624468 L5.98146901,16.1528094 L5.38924912,16.1344982 L4.95267368,16.1036585 L4.57295906,16.0651088 L4.24143158,16.0164398 L3.94893567,15.955724 L3.68727953,15.880552 L3.4473076,15.7889965 L3.22082807,15.6791298 L2.99868538,15.5485427 L2.83629474,15.438676 L2.68498713,15.3220632 L2.54476257,15.1987041 L2.41562105,15.0676351 L2.29659883,14.9278924 L2.18769591,14.7789942 L2.08843041,14.6199766 L1.99880234,14.4503579 L1.91784795,14.2696561 L1.84556725,14.0769076 C1.79846982,13.9375438 1.75858228,13.7958465 1.72606316,13.6523789 L1.63691696,13.1709895 L1.5757193,12.6274386 L1.54728889,11.9870316 L1.53235088,10.9977497 L1.53765146,8.47515322 L1.58101988,6.06483275 L1.61426901,5.21577544 L1.63306199,4.93532632 L1.65330058,4.77149006 L1.72269006,4.46405614 L1.79641637,4.1956538 L1.8783345,3.95905497 L1.97181754,3.74703158 L2.0802386,3.55235556 L2.20745263,3.3682807 L2.35683275,3.18709708 L2.53175205,3.00205848 L2.76112281,2.78955322 C2.83608565,2.72585607 2.91425047,2.66602621 2.99531228,2.61029708 C3.07436988,2.555686 3.1565926,2.50580529 3.24154854,2.46091696 C3.32683977,2.41562105 3.41502222,2.37514386 3.50802339,2.33803977 L3.80244678,2.23877427 L4.13204678,2.16071111 L4.50453333,2.10047719 L4.92761637,2.05518129 L5.45141053,2.03108772 L6.31733333,2.01374035 L8.62116023,1.99976608 L8.61826901,1.99976608 Z" id="Shape" fill="url(#radialGradient-3)"></path>
                </g>
            </g>
        </g>
    </g>
</svg>