<?xml version="1.0" encoding="UTF-8"?>
<svg width="184px" height="60px" viewBox="0 0 184 60" version="1.1" xmlns="http://www.w3.org/2000/svg" xmlns:xlink="http://www.w3.org/1999/xlink">
    <!-- Generator: Sketch 57.1 (83088) - https://sketch.com -->
    <title>LOGO</title>
    <desc>Created with Sketch.</desc>
    <g id="LOGO" stroke="none" stroke-width="1" fill="none" fill-rule="evenodd">
        <g id="awesome-logos-tile" transform="translate(11.000000, 10.000000)" stroke-linecap="round" stroke-linejoin="round">
            <g id="A-link" transform="translate(0.037989, 0.037989)">
                <g id="A">
                    <g id="Group">
                        <path d="M-1.30413419e-05,5.69836916 C-0.00323658975,4.1860778 0.596086175,2.73479403 1.6654401,1.6654401 C2.73479403,0.596086175 4.1860778,-0.00323658975 5.69836916,-1.30413419e-05 L33.2024976,-1.30413419e-05 C34.714789,-0.00323658975 36.1660728,0.596086175 37.2354267,1.6654401 C38.3047806,2.73479403 38.9041034,4.1860778 38.9008798,5.69836916 L38.9008798,33.2024976 C38.9041034,34.714789 38.3047806,36.1660728 37.2354267,37.2354267 C36.1660728,38.3047806 34.714789,38.9041034 33.2024976,38.9008798 L5.69836916,38.9008798 C4.1860778,38.9041034 2.73479403,38.3047806 1.6654401,37.2354267 C0.596086175,36.1660728 -0.00323658975,34.714789 -1.30413419e-05,33.2024976 L-1.30413419e-05,5.69836916 Z" id="Path" fill="#002854"></path>
                        <path d="M9.29214064,13.6493416 C7.10396689,13.6289795 4.56781272,15.3163046 3.8344706,17.0507362 C3.63829474,18.0326032 3.63981431,18.753029 3.89115038,19.6652999 L3.89115038,19.6663636 C4.55444055,20.1387964 4.83510422,21.3697961 5.23915658,22.6946289 C6.0259874,25.6150051 6.30421977,26.0434465 8.337018,26.6667721 C10.7037407,27.1398887 13.5267887,27.090123 14.7419849,26.583196 C15.702502,26.1818789 16.848862,25.9954283 17.6920686,23.1897032 C18.0491664,21.9421403 18.1004518,20.3586015 19.4138879,20.2327815 C20.1343897,20.2229043 20.6204226,20.6018839 21.097414,22.4031763 C21.6199925,24.3767115 22.5573362,26.1975304 24.245649,26.5525768 C25.8975683,26.9162087 25.8478025,26.9975055 27.8382809,27.0073826 C31.9898847,26.9260859 33.138524,25.8067743 33.753492,22.2587417 C34.228584,20.7030869 34.5026376,20.0329587 34.8167317,19.633693 C35.1077284,18.8337939 35.0598621,17.7612848 34.9995353,16.7525975 L34.9993834,16.7525975 L34.9883665,16.7499383 C34.612882,16.0082385 33.9486801,15.2848496 33.0292672,14.6757319 C32.0556059,14.0314363 30.9384976,13.7054896 29.8143233,13.7133913 L29.8144753,13.714607 C29.1399403,13.718102 28.4620623,13.8440739 27.8126002,14.0925988 C26.440205,14.6166968 26.1649358,15.1093398 26.9027606,15.7215726 C27.2370649,15.999653 27.5765358,15.9144054 28.5300629,15.3124297 C29.1923653,14.8943213 29.8614298,14.5523432 30.0168054,14.5523432 C30.325581,14.5523432 31.5192754,16.1138483 31.5257335,16.5234471 L31.5198072,16.5249667 L31.5196553,16.5249667 C31.4236947,16.6581565 30.1611641,16.7939297 28.6311139,16.8319188 C27.0395974,16.8712755 24.3584008,17.1150138 22.6728992,17.3731119 C19.8946783,17.7985901 19.2844209,17.7985901 16.1402887,17.3822293 C14.2328546,17.1296776 11.5030319,16.8408842 10.0740329,16.7402131 C8.71493384,16.6446324 7.59227914,16.4856859 7.48621349,16.3775688 L7.48606153,16.3775688 L7.48514979,16.3777208 C7.48013523,16.3739219 7.4770961,16.3673118 7.47717208,16.3638928 C7.47793186,16.2560036 7.78670749,15.7826591 8.16325572,15.3120498 L8.84812372,14.4562307 L10.1473519,15.2767959 C11.4411096,16.0935621 12.1635869,16.0630189 12.4581546,15.1791638 C12.5968908,14.7630309 10.3128325,13.6595987 9.29244456,13.6510132 L9.29214064,13.6493416 Z" id="Path" fill="#FFFFFF"></path>
                    </g>
                    <path d="M22.2869296,21.7009093 C22.9646557,25.8189308 23.6009735,25.6916672 28.0840705,25.9982395 C31.9171735,26.0631249 32.6338004,24.6988593 33.0436271,21.5445461 C32.9096774,18.1941329 32.0881246,17.439213 28.2904274,17.86188 C23.5222601,18.3848384 21.548345,18.1733909 22.2869296,21.7007574 L22.2869296,21.7009093 Z M16.7304119,21.7009093 C16.0526858,25.8189308 15.4163679,25.6916672 10.933271,25.9982395 C7.10016797,26.0631249 6.38354107,24.6988593 5.97371436,21.5445461 C6.10766402,18.1941329 6.9292169,17.439213 10.726914,17.86188 C15.4950814,18.3848384 17.4689965,18.1733909 16.7304119,21.7007574 L16.7304119,21.7009093 Z" id="Shape" stroke-opacity="0" stroke="#0000E1" stroke-width="0.5" fill="#002854" fill-rule="nonzero"></path>
                </g>
            </g>
            <g id="A">
                <g id="Group">
                    <path d="M-1.30413419e-05,5.69836916 C-0.00323658975,4.1860778 0.596086175,2.73479403 1.6654401,1.6654401 C2.73479403,0.596086175 4.1860778,-0.00323658975 5.69836916,-1.30413419e-05 L33.2024976,-1.30413419e-05 C34.714789,-0.00323658975 36.1660728,0.596086175 37.2354267,1.6654401 C38.3047806,2.73479403 38.9041034,4.1860778 38.9008798,5.69836916 L38.9008798,33.2024976 C38.9041034,34.714789 38.3047806,36.1660728 37.2354267,37.2354267 C36.1660728,38.3047806 34.714789,38.9041034 33.2024976,38.9008798 L5.69836916,38.9008798 C4.1860778,38.9041034 2.73479403,38.3047806 1.6654401,37.2354267 C0.596086175,36.1660728 -0.00323658975,34.714789 -1.30413419e-05,33.2024976 L-1.30413419e-05,5.69836916 Z" id="Path" fill="#225FAD"></path>
                    <path d="M9.29214064,13.6493416 C7.10396689,13.6289795 4.56781272,15.3163046 3.8344706,17.0507362 C3.63829474,18.0326032 3.63981431,18.753029 3.89115038,19.6652999 L3.89115038,19.6663636 C4.55444055,20.1387964 4.83510422,21.3697961 5.23915658,22.6946289 C6.0259874,25.6150051 6.30421977,26.0434465 8.337018,26.6667721 C10.7037407,27.1398887 13.5267887,27.090123 14.7419849,26.583196 C15.702502,26.1818789 16.848862,25.9954283 17.6920686,23.1897032 C18.0491664,21.9421403 18.1004518,20.3586015 19.4138879,20.2327815 C20.1343897,20.2229043 20.6204226,20.6018839 21.097414,22.4031763 C21.6199925,24.3767115 22.5573362,26.1975304 24.245649,26.5525768 C25.8975683,26.9162087 25.8478025,26.9975055 27.8382809,27.0073826 C31.9898847,26.9260859 33.138524,25.8067743 33.753492,22.2587417 C34.228584,20.7030869 34.5026376,20.0329587 34.8167317,19.633693 C35.1077284,18.8337939 35.0598621,17.7612848 34.9995353,16.7525975 L34.9993834,16.7525975 L34.9883665,16.7499383 C34.612882,16.0082385 33.9486801,15.2848496 33.0292672,14.6757319 C32.0556059,14.0314363 30.9384976,13.7054896 29.8143233,13.7133913 L29.8144753,13.714607 C29.1399403,13.718102 28.4620623,13.8440739 27.8126002,14.0925988 C26.440205,14.6166968 26.1649358,15.1093398 26.9027606,15.7215726 C27.2370649,15.999653 27.5765358,15.9144054 28.5300629,15.3124297 C29.1923653,14.8943213 29.8614298,14.5523432 30.0168054,14.5523432 C30.325581,14.5523432 31.5192754,16.1138483 31.5257335,16.5234471 L31.5198072,16.5249667 L31.5196553,16.5249667 C31.4236947,16.6581565 30.1611641,16.7939297 28.6311139,16.8319188 C27.0395974,16.8712755 24.3584008,17.1150138 22.6728992,17.3731119 C19.8946783,17.7985901 19.2844209,17.7985901 16.1402887,17.3822293 C14.2328546,17.1296776 11.5030319,16.8408842 10.0740329,16.7402131 C8.71493384,16.6446324 7.59227914,16.4856859 7.48621349,16.3775688 L7.48606153,16.3775688 L7.48514979,16.3777208 C7.48013523,16.3739219 7.4770961,16.3673118 7.47717208,16.3638928 C7.47793186,16.2560036 7.78670749,15.7826591 8.16325572,15.3120498 L8.84812372,14.4562307 L10.1473519,15.2767959 C11.4411096,16.0935621 12.1635869,16.0630189 12.4581546,15.1791638 C12.5968908,14.7630309 10.3128325,13.6595987 9.29244456,13.6510132 L9.29214064,13.6493416 Z" id="Path" fill="#FFFFFF"></path>
                </g>
                <path d="M22.2869296,21.7009093 C22.9646557,25.8189308 23.6009735,25.6916672 28.0840705,25.9982395 C31.9171735,26.0631249 32.6338004,24.6988593 33.0436271,21.5445461 C32.9096774,18.1941329 32.0881246,17.439213 28.2904274,17.86188 C23.5222601,18.3848384 21.548345,18.1733909 22.2869296,21.7007574 L22.2869296,21.7009093 Z M16.7304119,21.7009093 C16.0526858,25.8189308 15.4163679,25.6916672 10.933271,25.9982395 C7.10016797,26.0631249 6.38354107,24.6988593 5.97371436,21.5445461 C6.10766402,18.1941329 6.9292169,17.439213 10.726914,17.86188 C15.4950814,18.3848384 17.4689965,18.1733909 16.7304119,21.7007574 L16.7304119,21.7009093 Z" id="Shape" stroke-opacity="0" stroke="#0000E1" stroke-width="0.5" fill="#A6AE00" fill-rule="nonzero"></path>
            </g>
        </g>
        <text id="watchify" font-family="Helvetica-Bold, Helvetica" font-size="20" font-weight="bold" fill="#FFFFFF">
            <tspan x="68" y="37">WATCHIFY</tspan>
        </text>
    </g>
</svg>