<?xml version="1.0" encoding="UTF-8"?>
<svg width="30px" height="30px" viewBox="0 0 30 30" version="1.1" xmlns="http://www.w3.org/2000/svg" xmlns:xlink="http://www.w3.org/1999/xlink">
    <!-- Generator: Sketch 57.1 (83088) - https://sketch.com -->
    <title>Non Visible</title>
    <desc>Created with Sketch.</desc>
    <g id="Non-Visible" stroke="none" stroke-width="1" fill="none" fill-rule="evenodd">
        <g id="Group" transform="translate(3.000000, 5.337088)">
            <g id="password_see_show_view_icon" transform="translate(0.000000, 1.662912)" fill="#444444">
                <path d="M22.3461333,8 C21.6069333,8.9552 20.1974667,10.6181333 18.3730667,12.05 C16.4730667,13.5412 14.27,14.6666667 12,14.6666667 C9.73,14.6666667 7.52690667,13.5412 5.62692,12.05 C3.80246667,10.6181333 2.39294667,8.9552 1.65382667,8 C2.39294667,7.0448 3.80246667,5.38186667 5.62692,3.94996 C7.52690667,2.4588 9.73,1.33333333 12,1.33333333 C14.27,1.33333333 16.4730667,2.4588 18.3730667,3.94994667 C20.1974667,5.38186667 21.6069333,7.0448 22.3461333,8 Z M23.4729333,8.72213333 C21.9661333,10.6897333 17.3994667,16 12,16 C6.60045333,16 2.03385333,10.6897333 0.527053333,8.72213333 C0.1978,8.29213333 0.1978,7.70786667 0.527053333,7.27786667 C2.03385333,5.31022667 6.60045333,0 12,0 C17.3994667,0 21.9661333,5.31022667 23.4729333,7.27786667 C23.8021333,7.70786667 23.8021333,8.29213333 23.4729333,8.72213333 Z" id="Shape"></path>
                <path d="M12,10.6666667 C13.4728,10.6666667 14.6666667,9.4728 14.6666667,8 C14.6666667,6.5272 13.4728,5.33333333 12,5.33333333 C10.5272,5.33333333 9.33333333,6.5272 9.33333333,8 C9.33333333,9.4728 10.5272,10.6666667 12,10.6666667 Z M16,8 C16,10.2092 14.2092,12 12,12 C9.7908,12 8,10.2092 8,8 C8,5.7908 9.7908,4 12,4 C14.2092,4 16,5.7908 16,8 Z" id="Shape"></path>
            </g>
            <path d="M1.65382667,0 L21.5111573,19.8573306" id="Path-2" stroke="#444444" stroke-width="1.5" stroke-linecap="round"></path>
        </g>
    </g>
</svg>