<?xml version="1.0" encoding="UTF-8"?>
<svg width="72px" height="30px" viewBox="0 0 72 30" version="1.1" xmlns="http://www.w3.org/2000/svg" xmlns:xlink="http://www.w3.org/1999/xlink">
    <!-- Generator: Sketch 57.1 (83088) - https://sketch.com -->
    <title>You Tube</title>
    <desc>Created with Sketch.</desc>
    <g id="You-Tube" stroke="none" stroke-width="1" fill="none" fill-rule="evenodd" stroke-linecap="round" stroke-linejoin="round">
        <g id="youtube" transform="translate(8.000000, 8.000000)">
            <g id="A-link" transform="translate(0.247447, 0.247447)">
                <g id="A">
                    <g id="Group">
                        <path d="M16.875421,1.89346787 C16.6734946,1.1488412 16.0918123,0.5671589 15.3471856,0.365232432 C14.0075051,0 8.61463544,0 8.61463544,0 C8.61463544,0 3.22226066,0.0108876877 1.88258018,0.376615015 C1.13807852,0.57845234 0.556423193,1.15991931 0.354344745,1.90435556 C0,3.24453093 0,6.04613093 0,6.04613093 C0,6.04613093 0,8.84773093 0.365232432,10.198794 C0.5671589,10.9434207 1.1488412,11.525103 1.89346787,11.7270294 C3.23314835,12.0922619 8.62601802,12.0922619 8.62601802,12.0922619 C8.62601802,12.0922619 14.0183928,12.0922619 15.3585682,11.7270294 C16.1031948,11.525103 16.6848771,10.9434207 16.8868036,10.198794 C17.252036,8.85911351 17.252036,6.04662583 17.252036,6.04662583 C17.252036,6.04662583 17.2411483,3.24502583 16.875421,1.89445766 L16.875421,1.89346787 Z" id="Path" fill="#FF0000"></path>
                        <polygon id="Path" fill="#FFFFFF" points="11.3716949 6.04613093 6.89833994 3.45486126 6.89833994 8.63690571"></polygon>
                        <path d="M25.0253502,10.9955748 C24.6818931,10.7629742 24.4384048,10.4086294 24.2943904,9.92165285 C24.150376,9.43467628 24.0840601,8.7923027 24.0840601,7.98413934 L24.0840601,6.88794715 C24.0840601,6.07978378 24.1617586,5.41513994 24.3275483,4.92816336 C24.493833,4.4298042 24.748209,4.07545946 25.1025538,3.85424144 C25.4568985,3.63302342 25.9107171,3.51078438 26.4753922,3.51078438 C27.0291796,3.51078438 27.4829982,3.62164084 27.8150727,3.85424144 C28.1471471,4.08684204 28.402018,4.44118679 28.5569201,4.92816336 C28.7118222,5.41513994 28.7895207,6.0688961 28.7895207,6.87705946 L28.7895207,7.97325165 C28.7895207,8.78141502 28.7118222,9.42378859 28.5569201,9.91126006 C28.402018,10.3987315 28.1580348,10.7525814 27.8150727,10.985182 C27.4716156,11.2068949 27.0069093,11.328639 26.4308517,11.328639 C25.8330186,11.3395267 25.3678174,11.2177826 25.0243604,10.9965646 L25.0253502,10.9955748 Z M26.9410883,9.8107964 C27.0405622,9.56730811 27.0851027,9.15753514 27.0851027,8.60374775 L27.0851027,6.24507868 C27.0851027,5.70267387 27.0405622,5.30378859 26.9410883,5.0603003 C26.8416144,4.80542943 26.6753297,4.68368529 26.4427291,4.68368529 C26.2101285,4.68368529 26.0552264,4.80542943 25.9557526,5.0603003 C25.8562787,5.31517117 25.8117381,5.70267387 25.8117381,6.24507868 L25.8117381,8.60374775 C25.8117381,9.15753514 25.8562787,9.56730811 25.94437,9.8107964 C26.0324613,10.0542847 26.1992408,10.1760288 26.4427291,10.1760288 C26.6753297,10.1760288 26.8416144,10.0542847 26.9410883,9.8107964 Z M51.2132084,8.00591471 L51.2132084,8.39341742 L51.2577489,9.48960961 C51.2909069,9.7330979 51.3463351,9.91027027 51.4349213,10.0211267 C51.5235075,10.1319832 51.6675219,10.1874114 51.855582,10.1874114 C52.1104529,10.1874114 52.2876252,10.0879375 52.3762114,9.88849489 C52.4756853,9.68905225 52.5202258,9.35697778 52.5311135,8.90315916 L54.0039207,8.99174535 C54.0148084,9.05806126 54.0148084,9.14664745 54.0148084,9.2575039 C54.0148084,9.95530571 53.8267483,10.4754402 53.4392456,10.8188973 C53.0517429,11.1623544 52.5202258,11.3395267 51.822424,11.3395267 C50.9806078,11.3395267 50.3941574,11.0737682 50.061588,10.5531387 C49.7290186,10.0325093 49.5523411,9.21345826 49.5523411,8.11726607 L49.5523411,6.77758559 C49.5523411,5.64823544 49.7295135,4.8178018 50.0729706,4.29717237 C50.4273153,3.77654294 51.0251483,3.51078438 51.8669646,3.51078438 C52.4539099,3.51078438 52.8968408,3.62164084 53.206645,3.83197117 C53.5164492,4.0423015 53.7381622,4.37437598 53.8712889,4.82868949 C54.0044156,5.283003 54.0593489,5.90261141 54.0593489,6.69988709 L54.0593489,7.99552192 L51.2137033,7.99552192 L51.2132084,8.00591471 Z M51.4344264,4.81681201 C51.3458402,4.92766847 51.290412,5.09345826 51.2572541,5.33744144 C51.2240961,5.58142462 51.2127135,5.94665706 51.2127135,6.44452132 L51.2127135,6.98692613 L52.4529201,6.98692613 L52.4529201,6.44452132 L52.4083796,5.33744144 C52.3752216,5.08257057 52.3197934,4.9053982 52.2312072,4.80592432 C52.142621,4.70645045 52.0099892,4.65102222 51.8328168,4.65102222 C51.6447568,4.66190991 51.51163,4.71733814 51.4339315,4.81730691 L51.4344264,4.81681201 Z M20.8840697,7.8619003 L18.9460613,0.863591592 L20.6400865,0.863591592 L21.315618,4.03042402 L21.7031207,6.02386066 L21.7476613,6.02386066 C21.8030895,5.62497538 21.9357213,4.97171411 22.135164,4.04180661 L22.8329658,0.864086486 L24.526991,0.864086486 L22.5672072,7.85051772 L22.5672072,11.2059051 L20.8949574,11.2059051 L20.8949574,7.8619003 L20.8840697,7.8619003 Z M34.2823592,3.6543039 L34.2823592,11.2172877 L32.9535664,11.2172877 L32.809552,10.2868853 L32.776394,10.2868853 C32.4111616,10.9846871 31.8682619,11.3390318 31.1486847,11.3390318 C30.6503255,11.3390318 30.2737105,11.1727471 30.0416048,10.8406727 C29.7981165,10.5085982 29.6872601,9.99885646 29.6872601,9.30154955 L29.6872601,3.6543039 L31.3926679,3.6543039 L31.3926679,9.20207568 C31.3926679,9.53415015 31.4258258,9.77763844 31.5035243,9.92165285 C31.5718901,10.0588346 31.715792,10.141705 31.8687568,10.1319832 C32.0127712,10.1319832 32.1567856,10.0874426 32.2894174,9.99885646 C32.4172788,9.91236983 32.5203213,9.79397333 32.5883339,9.6553994 L32.5883339,3.6543039 L34.2823592,3.6543039 Z M43.0192336,3.6543039 L43.0192336,11.2172877 L41.6904408,11.2172877 L41.5464264,10.2868853 L41.5132685,10.2868853 C41.148036,10.9846871 40.6051363,11.3390318 39.8855592,11.3390318 C39.3872,11.3390318 39.010585,11.1727471 38.7779844,10.8406727 C38.5344961,10.5085982 38.4236396,9.99885646 38.4236396,9.30154955 L38.4236396,3.6543039 L40.1290474,3.6543039 L40.1290474,9.20207568 C40.1290474,9.53415015 40.1622054,9.77763844 40.2399039,9.92165285 C40.3082697,10.0588346 40.4521716,10.141705 40.6051363,10.1319832 C40.7491508,10.1319832 40.8931652,10.0874426 41.025797,9.99885646 C41.1536583,9.91236983 41.2567008,9.79397333 41.3247135,9.6553994 L41.3247135,3.6543039 L43.0192336,3.6543039 Z M38.9111111,2.23692492 L37.2170859,2.23692492 L37.2170859,11.2172877 L35.5562186,11.2172877 L35.5562186,2.23692492 L33.8621934,2.23692492 L33.8621934,0.863591592 L38.9002234,0.863591592 L38.9002234,2.23692492 L38.9111111,2.23692492 Z M48.644209,4.86135255 C48.5447351,4.38526366 48.3784505,4.04180661 48.1458498,3.82058859 C47.9132492,3.61025826 47.603445,3.4994018 47.1936721,3.4994018 C46.8820501,3.49883402 46.5773638,3.5913773 46.3186979,3.76516036 C46.0420517,3.94233273 45.842609,4.17493333 45.6877069,4.46296216 L45.6768192,4.46296216 L45.6768192,0.476088889 L44.0382222,0.476088889 L44.0382222,11.2059051 L45.4447135,11.2059051 L45.6218859,10.4863279 L45.6550438,10.4863279 C45.7876757,10.7411988 45.9871183,10.9401465 46.2419892,11.0955435 C46.5101516,11.2423319 46.8112593,11.3184604 47.1169634,11.3167894 C47.6925261,11.3167894 48.1136817,11.051003 48.3903279,10.5194859 C48.6560865,9.98796877 48.8001009,9.15753514 48.8001009,8.03907267 L48.8001009,6.84291171 C48.8001009,6.00159039 48.7446727,5.33694655 48.6451988,4.86085766 L48.644209,4.86135255 Z M47.0828156,7.95098138 C47.0828156,8.50476877 47.0605453,8.93631712 47.0164997,9.24661622 C46.9724541,9.55691532 46.8947556,9.77813333 46.7838991,9.91076517 C46.6790543,10.0412235 46.5191535,10.115038 46.3518559,10.1102078 C46.2162198,10.1114423 46.0826236,10.0771475 45.9643532,10.0107339 C45.842609,9.94441802 45.7540228,9.84444925 45.6763243,9.71181742 L45.6763243,5.41563483 C45.7317526,5.2053045 45.8312264,5.03901982 45.9752408,4.90638799 C46.1192553,4.77375616 46.2632697,4.70694535 46.4290595,4.70694535 C46.6062318,4.70694535 46.7388637,4.77326126 46.8274498,4.90638799 C46.9269237,5.03901982 46.982352,5.27162042 47.0268925,5.59280721 C47.0600505,5.91399399 47.0823207,6.36781261 47.0823207,6.96564565 L47.0828156,7.95098138 Z" id="Shape" fill="#282828"></path>
                    </g>
                </g>
            </g>
            <g id="A">
                <g id="Group">
                    <path d="M16.875421,1.89346787 C16.6734946,1.1488412 16.0918123,0.5671589 15.3471856,0.365232432 C14.0075051,0 8.61463544,0 8.61463544,0 C8.61463544,0 3.22226066,0.0108876877 1.88258018,0.376615015 C1.13807852,0.57845234 0.556423193,1.15991931 0.354344745,1.90435556 C0,3.24453093 0,6.04613093 0,6.04613093 C0,6.04613093 0,8.84773093 0.365232432,10.198794 C0.5671589,10.9434207 1.1488412,11.525103 1.89346787,11.7270294 C3.23314835,12.0922619 8.62601802,12.0922619 8.62601802,12.0922619 C8.62601802,12.0922619 14.0183928,12.0922619 15.3585682,11.7270294 C16.1031948,11.525103 16.6848771,10.9434207 16.8868036,10.198794 C17.252036,8.85911351 17.252036,6.04662583 17.252036,6.04662583 C17.252036,6.04662583 17.2411483,3.24502583 16.875421,1.89445766 L16.875421,1.89346787 Z" id="Path" fill="#FF0000"></path>
                    <polygon id="Path" fill="#FFFFFF" points="11.3716949 6.04613093 6.89833994 3.45486126 6.89833994 8.63690571"></polygon>
                    <path d="M25.0253502,10.9955748 C24.6818931,10.7629742 24.4384048,10.4086294 24.2943904,9.92165285 C24.150376,9.43467628 24.0840601,8.7923027 24.0840601,7.98413934 L24.0840601,6.88794715 C24.0840601,6.07978378 24.1617586,5.41513994 24.3275483,4.92816336 C24.493833,4.4298042 24.748209,4.07545946 25.1025538,3.85424144 C25.4568985,3.63302342 25.9107171,3.51078438 26.4753922,3.51078438 C27.0291796,3.51078438 27.4829982,3.62164084 27.8150727,3.85424144 C28.1471471,4.08684204 28.402018,4.44118679 28.5569201,4.92816336 C28.7118222,5.41513994 28.7895207,6.0688961 28.7895207,6.87705946 L28.7895207,7.97325165 C28.7895207,8.78141502 28.7118222,9.42378859 28.5569201,9.91126006 C28.402018,10.3987315 28.1580348,10.7525814 27.8150727,10.985182 C27.4716156,11.2068949 27.0069093,11.328639 26.4308517,11.328639 C25.8330186,11.3395267 25.3678174,11.2177826 25.0243604,10.9965646 L25.0253502,10.9955748 Z M26.9410883,9.8107964 C27.0405622,9.56730811 27.0851027,9.15753514 27.0851027,8.60374775 L27.0851027,6.24507868 C27.0851027,5.70267387 27.0405622,5.30378859 26.9410883,5.0603003 C26.8416144,4.80542943 26.6753297,4.68368529 26.4427291,4.68368529 C26.2101285,4.68368529 26.0552264,4.80542943 25.9557526,5.0603003 C25.8562787,5.31517117 25.8117381,5.70267387 25.8117381,6.24507868 L25.8117381,8.60374775 C25.8117381,9.15753514 25.8562787,9.56730811 25.94437,9.8107964 C26.0324613,10.0542847 26.1992408,10.1760288 26.4427291,10.1760288 C26.6753297,10.1760288 26.8416144,10.0542847 26.9410883,9.8107964 Z M51.2132084,8.00591471 L51.2132084,8.39341742 L51.2577489,9.48960961 C51.2909069,9.7330979 51.3463351,9.91027027 51.4349213,10.0211267 C51.5235075,10.1319832 51.6675219,10.1874114 51.855582,10.1874114 C52.1104529,10.1874114 52.2876252,10.0879375 52.3762114,9.88849489 C52.4756853,9.68905225 52.5202258,9.35697778 52.5311135,8.90315916 L54.0039207,8.99174535 C54.0148084,9.05806126 54.0148084,9.14664745 54.0148084,9.2575039 C54.0148084,9.95530571 53.8267483,10.4754402 53.4392456,10.8188973 C53.0517429,11.1623544 52.5202258,11.3395267 51.822424,11.3395267 C50.9806078,11.3395267 50.3941574,11.0737682 50.061588,10.5531387 C49.7290186,10.0325093 49.5523411,9.21345826 49.5523411,8.11726607 L49.5523411,6.77758559 C49.5523411,5.64823544 49.7295135,4.8178018 50.0729706,4.29717237 C50.4273153,3.77654294 51.0251483,3.51078438 51.8669646,3.51078438 C52.4539099,3.51078438 52.8968408,3.62164084 53.206645,3.83197117 C53.5164492,4.0423015 53.7381622,4.37437598 53.8712889,4.82868949 C54.0044156,5.283003 54.0593489,5.90261141 54.0593489,6.69988709 L54.0593489,7.99552192 L51.2137033,7.99552192 L51.2132084,8.00591471 Z M51.4344264,4.81681201 C51.3458402,4.92766847 51.290412,5.09345826 51.2572541,5.33744144 C51.2240961,5.58142462 51.2127135,5.94665706 51.2127135,6.44452132 L51.2127135,6.98692613 L52.4529201,6.98692613 L52.4529201,6.44452132 L52.4083796,5.33744144 C52.3752216,5.08257057 52.3197934,4.9053982 52.2312072,4.80592432 C52.142621,4.70645045 52.0099892,4.65102222 51.8328168,4.65102222 C51.6447568,4.66190991 51.51163,4.71733814 51.4339315,4.81730691 L51.4344264,4.81681201 Z M20.8840697,7.8619003 L18.9460613,0.863591592 L20.6400865,0.863591592 L21.315618,4.03042402 L21.7031207,6.02386066 L21.7476613,6.02386066 C21.8030895,5.62497538 21.9357213,4.97171411 22.135164,4.04180661 L22.8329658,0.864086486 L24.526991,0.864086486 L22.5672072,7.85051772 L22.5672072,11.2059051 L20.8949574,11.2059051 L20.8949574,7.8619003 L20.8840697,7.8619003 Z M34.2823592,3.6543039 L34.2823592,11.2172877 L32.9535664,11.2172877 L32.809552,10.2868853 L32.776394,10.2868853 C32.4111616,10.9846871 31.8682619,11.3390318 31.1486847,11.3390318 C30.6503255,11.3390318 30.2737105,11.1727471 30.0416048,10.8406727 C29.7981165,10.5085982 29.6872601,9.99885646 29.6872601,9.30154955 L29.6872601,3.6543039 L31.3926679,3.6543039 L31.3926679,9.20207568 C31.3926679,9.53415015 31.4258258,9.77763844 31.5035243,9.92165285 C31.5718901,10.0588346 31.715792,10.141705 31.8687568,10.1319832 C32.0127712,10.1319832 32.1567856,10.0874426 32.2894174,9.99885646 C32.4172788,9.91236983 32.5203213,9.79397333 32.5883339,9.6553994 L32.5883339,3.6543039 L34.2823592,3.6543039 Z M43.0192336,3.6543039 L43.0192336,11.2172877 L41.6904408,11.2172877 L41.5464264,10.2868853 L41.5132685,10.2868853 C41.148036,10.9846871 40.6051363,11.3390318 39.8855592,11.3390318 C39.3872,11.3390318 39.010585,11.1727471 38.7779844,10.8406727 C38.5344961,10.5085982 38.4236396,9.99885646 38.4236396,9.30154955 L38.4236396,3.6543039 L40.1290474,3.6543039 L40.1290474,9.20207568 C40.1290474,9.53415015 40.1622054,9.77763844 40.2399039,9.92165285 C40.3082697,10.0588346 40.4521716,10.141705 40.6051363,10.1319832 C40.7491508,10.1319832 40.8931652,10.0874426 41.025797,9.99885646 C41.1536583,9.91236983 41.2567008,9.79397333 41.3247135,9.6553994 L41.3247135,3.6543039 L43.0192336,3.6543039 Z M38.9111111,2.23692492 L37.2170859,2.23692492 L37.2170859,11.2172877 L35.5562186,11.2172877 L35.5562186,2.23692492 L33.8621934,2.23692492 L33.8621934,0.863591592 L38.9002234,0.863591592 L38.9002234,2.23692492 L38.9111111,2.23692492 Z M48.644209,4.86135255 C48.5447351,4.38526366 48.3784505,4.04180661 48.1458498,3.82058859 C47.9132492,3.61025826 47.603445,3.4994018 47.1936721,3.4994018 C46.8820501,3.49883402 46.5773638,3.5913773 46.3186979,3.76516036 C46.0420517,3.94233273 45.842609,4.17493333 45.6877069,4.46296216 L45.6768192,4.46296216 L45.6768192,0.476088889 L44.0382222,0.476088889 L44.0382222,11.2059051 L45.4447135,11.2059051 L45.6218859,10.4863279 L45.6550438,10.4863279 C45.7876757,10.7411988 45.9871183,10.9401465 46.2419892,11.0955435 C46.5101516,11.2423319 46.8112593,11.3184604 47.1169634,11.3167894 C47.6925261,11.3167894 48.1136817,11.051003 48.3903279,10.5194859 C48.6560865,9.98796877 48.8001009,9.15753514 48.8001009,8.03907267 L48.8001009,6.84291171 C48.8001009,6.00159039 48.7446727,5.33694655 48.6451988,4.86085766 L48.644209,4.86135255 Z M47.0828156,7.95098138 C47.0828156,8.50476877 47.0605453,8.93631712 47.0164997,9.24661622 C46.9724541,9.55691532 46.8947556,9.77813333 46.7838991,9.91076517 C46.6790543,10.0412235 46.5191535,10.115038 46.3518559,10.1102078 C46.2162198,10.1114423 46.0826236,10.0771475 45.9643532,10.0107339 C45.842609,9.94441802 45.7540228,9.84444925 45.6763243,9.71181742 L45.6763243,5.41563483 C45.7317526,5.2053045 45.8312264,5.03901982 45.9752408,4.90638799 C46.1192553,4.77375616 46.2632697,4.70694535 46.4290595,4.70694535 C46.6062318,4.70694535 46.7388637,4.77326126 46.8274498,4.90638799 C46.9269237,5.03901982 46.982352,5.27162042 47.0268925,5.59280721 C47.0600505,5.91399399 47.0823207,6.36781261 47.0823207,6.96564565 L47.0828156,7.95098138 Z" id="Shape" fill="#FFFFFF"></path>
                </g>
            </g>
        </g>
    </g>
</svg>